<svg xmlns="http://www.w3.org/2000/svg" width="38.48" height="38.48" viewBox="0 0 38.48 38.48">
  <defs>
    <style>
      .cls-1 {
        fill: rgba(255,255,255,0);
        stroke: #e6e7e9;
      }

      .cls-2 {
        fill: #215aff;
      }

      .cls-3 {
        stroke: none;
      }

      .cls-4 {
        fill: none;
      }
    </style>
  </defs>
  <g id="icon-alert-triangle-outline" transform="translate(-228 -958.242)">
    <g id="Retângulo_436" data-name="Retângulo 436" class="cls-1" transform="translate(228 958.242)">
      <rect class="cls-3" width="38.48" height="38.48" rx="19"/>
      <rect class="cls-4" x="0.5" y="0.5" width="37.48" height="37.48" rx="18.5"/>
    </g>
    <g id="alert-triangle" transform="translate(237.445 967.344)">
      <path id="Caminho_3848" data-name="Caminho 3848" class="cls-2" d="M9.722,1.9a2.417,2.417,0,0,1,2.055,1.157l0,0,6.784,11.326.007.011A2.4,2.4,0,0,1,16.515,18H2.929a2.4,2.4,0,0,1-2.055-3.6l.007-.011L7.665,3.058l0,0A2.417,2.417,0,0,1,9.722,1.9Zm.684,1.986a.8.8,0,0,0-1.368,0L2.259,15.2a.8.8,0,0,0,.684,1.2H16.5a.8.8,0,0,0,.684-1.2Z" transform="translate(0)"/>
      <path id="Linha_122" data-name="Linha 122" class="cls-2" d="M-.2,3.806A.8.8,0,0,1-1,3V-.2A.8.8,0,0,1-.2-1a.8.8,0,0,1,.8.8V3A.8.8,0,0,1-.2,3.806Z" transform="translate(9.921 7.786)"/>
      <path id="Linha_123" data-name="Linha 123" class="cls-2" d="M-.191.6H-.2A.8.8,0,0,1-1-.2.8.8,0,0,1-.2-1h.008a.8.8,0,0,1,.8.8A.8.8,0,0,1-.191.6Z" transform="translate(9.921 14.193)"/>
    </g>
  </g>
</svg>
