<svg xmlns="http://www.w3.org/2000/svg" width="38.48" height="38.48" viewBox="0 0 38.48 38.48">
    <defs>
        <style>
            .cls-2{fill:#215aff}
        </style>
    </defs>
    <g id="icon-info-circle" transform="translate(-60 -291)">
        <rect id="Retângulo_447" data-name="Retângulo 447" width="38.48" height="38.48" rx="19" transform="translate(60 291)" style="fill:transparent"/>
        <g id="plus-circle" transform="translate(69.938 301.18)">
            <path id="Elipse_47" data-name="Elipse 47" class="cls-2" d="M7.063-1a8.062 8.062 0 0 1 8.063 8.063 8.062 8.062 0 0 1-8.063 8.063A8.062 8.062 0 0 1-1 7.063 8.062 8.062 0 0 1 7.063-1zm0 14.659a6.6 6.6 0 1 0-6.6-6.6 6.6 6.6 0 0 0 6.6 6.6z" transform="translate(2 2)"/>
            <g id="Grupo_3794" data-name="Grupo 3794" transform="translate(8.33 5.398)">
                <path id="Linha_147" data-name="Linha 147" class="cls-2" d="M-.267 3.4A.733.733 0 0 1-1 2.665V-.267A.733.733 0 0 1-.267-1a.733.733 0 0 1 .733.733v2.932a.733.733 0 0 1-.733.735z" transform="translate(1 3.932)"/>
                <path id="Linha_148" data-name="Linha 148" class="cls-2" d="M-.26.466h-.007A.733.733 0 0 1-1-.267.733.733 0 0 1-.267-1h.007a.733.733 0 0 1 .733.733.733.733 0 0 1-.733.733z" transform="translate(1 1)"/>
            </g>
        </g>
    </g>
</svg>
