<svg xmlns="http://www.w3.org/2000/svg" width="38.48" height="38.48" viewBox="0 0 38.48 38.48">
    <defs>
        <style>
            .cls-2{fill:#215aff}
        </style>
    </defs>
    <g id="icon-calendar" transform="translate(-60 -291)">
        <rect id="Ret창ngulo_447" data-name="Ret창ngulo 447" width="38.48" height="38.48" rx="19" transform="translate(60 291)" style="fill:transparent"/>
        <g id="calendar" transform="translate(70 301)">
            <path id="Ret창ngulo_268" data-name="Ret창ngulo 268" class="cls-2" d="M1.182-1h10.182a2.184 2.184 0 0 1 2.182 2.182v10.182a2.184 2.184 0 0 1-2.182 2.182H1.182A2.184 2.184 0 0 1-1 11.364V1.182A2.184 2.184 0 0 1 1.182-1zm10.182 13.091a.728.728 0 0 0 .727-.727V1.182a.728.728 0 0 0-.727-.727H1.182a.728.728 0 0 0-.727.727v10.182a.728.728 0 0 0 .727.727z" transform="translate(3 3.455)"/>
            <path id="Linha_68" data-name="Linha 68" class="cls-2" d="M-.273 3.364A.727.727 0 0 1-1 2.636V-.273A.727.727 0 0 1-.273-1a.727.727 0 0 1 .727.727v2.909a.727.727 0 0 1-.727.728z" transform="translate(12.455 2)"/>
            <path id="Linha_69" data-name="Linha 69" class="cls-2" d="M-.273 3.364A.727.727 0 0 1-1 2.636V-.273A.727.727 0 0 1-.273-1a.727.727 0 0 1 .727.727v2.909a.727.727 0 0 1-.727.728z" transform="translate(6.636 2)"/>
            <path id="Linha_70" data-name="Linha 70" class="cls-2" d="M12.818.455H-.273A.727.727 0 0 1-1-.273.727.727 0 0 1-.273-1h13.091a.727.727 0 0 1 .727.727.727.727 0 0 1-.727.728z" transform="translate(3 7.818)"/>
        </g>
    </g>
</svg>
