<svg xmlns="http://www.w3.org/2000/svg" width="38.48" height="38.48" viewBox="0 0 38.48 38.48">
    <g transform="translate(-340 -291)">
        <path d="M6.922.358v5.61h2.813V.358a1.407 1.407 0 0 0-2.813 0zM0 2.806a.485.485 0 1 1 .69-.686l.266.266.859-.859a1.5 1.5 0 1 0 .541.831L1.3 3.415a.485.485 0 0 1-.686 0zM2.5.838l.612-.609A.485.485 0 0 1 3.8.915l-.693.692A2.472 2.472 0 1 1 2.5.838zM-2.132 10.98a.485.485 0 0 0-.485.485.485.485 0 0 0 .485.485.485.485 0 0 0 .485-.485.485.485 0 0 0-.485-.485zm1.94.97a.485.485 0 0 1-.485-.485.485.485 0 0 1 .485-.485H4.5a.485.485 0 0 1 0 .97zm-1.94-2.91a.485.485 0 0 0-.485.485.485.485 0 0 0 .485.485.485.485 0 0 0 .485-.485.485.485 0 0 0-.485-.485zm1.94.97a.485.485 0 0 1-.485-.485.485.485 0 0 1 .485-.485H4.5a.485.485 0 1 1 0 .97zm7.114-3.072v7.114a.485.485 0 0 1-.485.485H-4.072a.485.485 0 0 1-.485-.485V.309a2.332 2.332 0 0 1 2.328-2.328H8.329A2.382 2.382 0 0 1 10.706.358v6.1a.485.485 0 0 1-.485.485zm-.506-7.987A2.363 2.363 0 0 0 5.952.358v13.209h-9.539V.309a1.362 1.362 0 0 1 1.358-1.358zM-2.132 7.1a.485.485 0 0 0-.485.485.485.485 0 0 0 .485.485.485.485 0 0 0 .485-.485.485.485 0 0 0-.485-.485zm1.94.97H4.5a.485.485 0 0 0 0-.97H-.192a.485.485 0 0 0-.485.485.485.485 0 0 0 .485.485zm0 0" transform="translate(356.367 303.982)" style="fill:#215aff;fill-rule:evenodd"/>
        <rect data-name="Retângulo 442" width="38.48" height="38.48" rx="19" transform="translate(340 291)" style="fill:transparent"/>
    </g>
</svg>
