<svg xmlns="http://www.w3.org/2000/svg" width="38.48" height="38.48" viewBox="0 0 38.48 38.48">
  <defs>
    <style>
      .cls-1 {
        fill: rgba(255,255,255,0);
      }

      .cls-2 {
        fill: #215aff;
      }
    </style>
  </defs>
  <g id="icon-power" transform="translate(-564 -291.242)">
    <rect id="Retângulo_438" data-name="Retângulo 438" class="cls-1" width="38.48" height="38.48" rx="19" transform="translate(564 291.242)"/>
    <path id="Caminho_3851" data-name="Caminho 3851" class="cls-2" d="M7.211,16.2a7.134,7.134,0,0,1-5.232-2.263A7.293,7.293,0,0,1,0,9.267,7.489,7.489,0,0,1,2.838,3.159a1.1,1.1,0,1,1,1.327,1.76A5.307,5.307,0,0,0,2.207,9.192a5.053,5.053,0,0,0,5.017,4.8h.036a4.94,4.94,0,0,0,5.035-4.789,5.325,5.325,0,0,0-1.923-4.352,1.1,1.1,0,1,1,1.483-1.631A8.215,8.215,0,0,1,13.722,5.61,7.611,7.611,0,0,1,14.5,9.258,7.146,7.146,0,0,1,7.258,16.2ZM6.264,5.9V1.1a1.1,1.1,0,1,1,2.2,0V5.9a1.1,1.1,0,1,1-2.2,0Z" transform="translate(576.328 302.492)"/>
  </g>
</svg>
