<svg xmlns="http://www.w3.org/2000/svg" width="38.48" height="38.48" viewBox="0 0 38.48 38.48">
  <defs>
    <style>
      .cls-1 {
        fill: rgba(255,255,255,0);
      }

      .cls-2 {
        fill: #215aff;
      }
    </style>
  </defs>
  <g id="icon-doble-arrow" transform="translate(-60 -291)">
    <rect id="Retângulo_447" data-name="Retângulo 447" class="cls-1" width="38.48" height="38.48" rx="19" transform="translate(60 291)"/>
    <g id="Grupo_3986" data-name="Grupo 3986" transform="translate(3274 1468.842)">
      <path id="Caminho_3765" data-name="Caminho 3765" class="cls-2" d="M3.066.628a.364.364,0,0,0-.038.156l0,10.3L1.421,9.676a.921.921,0,0,0-1.168.074.9.9,0,0,0,.1,1.335l3.157,2.761a.581.581,0,0,0,.121.085l.027.016A.628.628,0,0,0,3.914,14h0a.614.614,0,0,0,.252-.055L4.2,13.93a.614.614,0,0,0,.12-.08l3.079-2.7a.875.875,0,0,0-1.054-1.4L4.8,11.084l0-10.2V.8a.391.391,0,0,0-.03-.144A.887.887,0,0,0,3.066.628Z" transform="translate(-3188.999 -1166.842) rotate(90)"/>
      <path id="Caminho_3766" data-name="Caminho 3766" class="cls-2" d="M3.065,13.373a.364.364,0,0,1-.038-.156l0-10.3L1.421,4.325A.921.921,0,0,1,.253,4.251a.9.9,0,0,1,.1-1.335L3.511.156A.58.58,0,0,1,3.632.071L3.659.055A.628.628,0,0,1,3.914,0h0a.614.614,0,0,1,.252.055L4.2.071a.614.614,0,0,1,.12.08L7.4,2.856a.875.875,0,0,1-1.054,1.4L4.8,2.917l0,10.2V13.2a.391.391,0,0,1-.03.144.887.887,0,0,1-1.706.031Z" transform="translate(-3187.225 -1157.767) rotate(90)"/>
    </g>
  </g>
</svg>
