<svg xmlns="http://www.w3.org/2000/svg" width="38.48" height="38.48" viewBox="0 0 38.48 38.48">
    <defs>
        <style>
            .cls-2{fill:#215aff}
        </style>
    </defs>
    <g id="icon-share" transform="translate(-60 -291.242)">
        <rect id="Retângulo_447" data-name="Retângulo 447" width="38.48" height="38.48" rx="19" transform="translate(60 291.242)" style="fill:transparent"/>
        <g id="share" transform="translate(70 301.242)">
            <path id="Caminho_3809" data-name="Caminho 3809" class="cls-2" d="M13.938 19.75h-8.75A2.19 2.19 0 0 1 3 17.563v-5.834a.729.729 0 0 1 1.458 0v5.833a.73.73 0 0 0 .729.729h8.75a.73.73 0 0 0 .729-.729v-5.833a.729.729 0 0 1 1.458 0v5.833a2.19 2.19 0 0 1-2.186 2.188z" transform="translate(0 -2.708)"/>
            <path id="Caminho_3810" data-name="Caminho 3810" class="cls-2" d="M13.563 5.375a.727.727 0 0 1-.516-.214l-2.4-2.4-2.4 2.4A.729.729 0 0 1 7.214 4.13l2.916-2.916a.729.729 0 0 1 1.031 0l2.917 2.916a.729.729 0 0 1-.516 1.245z" transform="translate(-1.083)"/>
            <path id="Linha_69" data-name="Linha 69" class="cls-2" d="M-.271 9.938A.729.729 0 0 1-1 9.208V-.271A.729.729 0 0 1-.271-1a.729.729 0 0 1 .729.729v9.479a.729.729 0 0 1-.729.73z" transform="translate(9.833 2)"/>
        </g>
    </g>
</svg>
