<svg xmlns="http://www.w3.org/2000/svg" width="38.48" height="38.48" viewBox="0 0 38.48 38.48">
  <defs>
    <style>
      .cls-1 {
        fill: #215aff;
      }

      .cls-2, .cls-4 {
        fill: none;
      }

      .cls-2 {
        stroke: #e6e7e9;
      }

      .cls-3 {
        stroke: none;
      }
    </style>
  </defs>
  <g id="icon-eye-outline" transform="translate(-60 -519)">
    <g id="eye" transform="translate(69 530)">
      <path id="Caminho_3806" data-name="Caminho 3806" class="cls-1" d="M10.737,3A9.471,9.471,0,0,1,15.35,4.23a13.575,13.575,0,0,1,3.31,2.632,17.777,17.777,0,0,1,2.72,3.791.9.9,0,0,1,0,.8,17.777,17.777,0,0,1-2.72,3.791,13.575,13.575,0,0,1-3.31,2.632,9.471,9.471,0,0,1-4.612,1.23,9.471,9.471,0,0,1-4.612-1.23,13.575,13.575,0,0,1-3.31-2.632,17.777,17.777,0,0,1-2.72-3.791.9.9,0,0,1,0-.8,17.777,17.777,0,0,1,2.72-3.791A13.575,13.575,0,0,1,6.125,4.23,9.471,9.471,0,0,1,10.737,3Zm8.821,8.053a16.786,16.786,0,0,0-2.235-3A9.059,9.059,0,0,0,10.737,4.79c-4.827,0-7.986,4.824-8.821,6.263a16.786,16.786,0,0,0,2.235,3,9.059,9.059,0,0,0,6.586,3.263C15.564,17.316,18.723,12.492,19.558,11.053Z" transform="translate(0 -3)"/>
      <path id="Elipse_41" data-name="Elipse 41" class="cls-1" d="M2.579-1A3.579,3.579,0,1,1-1,2.579,3.583,3.583,0,0,1,2.579-1Zm0,5.369A1.79,1.79,0,1,0,.79,2.579,1.792,1.792,0,0,0,2.579,4.369Z" transform="translate(8.158 5.474)"/>
    </g>
    <g id="Retângulo_438" data-name="Retângulo 438" class="cls-2" transform="translate(60 519)">
      <rect class="cls-3" width="38.48" height="38.48" rx="19"/>
      <rect class="cls-4" x="0.5" y="0.5" width="37.48" height="37.48" rx="18.5"/>
    </g>
  </g>
</svg>
