<svg xmlns="http://www.w3.org/2000/svg" width="38.48" height="38.48" viewBox="0 0 38.48 38.48">
  <defs>
    <style>
      .cls-1 {
        fill: rgba(255,255,255,0);
      }

      .cls-2 {
        fill: #215aff;
      }
    </style>
  </defs>
  <g id="icon-transfer" transform="translate(-60 -291.242)">
    <rect id="Retângulo_447" data-name="Retângulo 447" class="cls-1" width="38.48" height="38.48" rx="19" transform="translate(60 291.242)"/>
    <g id="Grupo_4079" data-name="Grupo 4079" transform="translate(4393.623 1606.982)">
      <path id="Caminho_3796" data-name="Caminho 3796" class="cls-2" d="M9.072,1.262,4.036,4.876H14.109L9.072,1.262m0-1.036a.518.518,0,0,1,.3.1L15.79,4.876a.519.519,0,0,1-.3.942H2.655a.519.519,0,0,1-.3-.942L8.772.322A.518.518,0,0,1,9.072.226Z" transform="translate(-4324.758 -1304.966)"/>
      <path id="Caminho_3796-2" data-name="Caminho 3796" class="cls-2" d="M6.723.934H.467A.467.467,0,0,1,.467,0H9.2a.467.467,0,0,1,0,.934Z" transform="translate(-4322.623 -1292.057)"/>
      <g id="Grupo_3339" data-name="Grupo 3339" transform="translate(-4321.066 -1298.364)">
        <path id="Caminho_3797" data-name="Caminho 3797" class="cls-2" d="M2.581.934H.467A.467.467,0,1,1,.467,0h4.59a.467.467,0,0,1,0,.934Z" transform="translate(0 5.524) rotate(-90)"/>
        <path id="Caminho_3798" data-name="Caminho 3798" class="cls-2" d="M2.581.934H.467A.467.467,0,1,1,.467,0h4.59a.467.467,0,0,1,0,.934Z" transform="translate(5.019 5.524) rotate(-90)"/>
      </g>
      <g id="Grupo_3515" data-name="Grupo 3515" transform="translate(-4311.935 -1298.62)">
        <path id="Caminho_3842" data-name="Caminho 3842" class="cls-2" d="M2.543,5.27a.392.392,0,0,0,.029-.553l-.888-.985c-.072-.08-.245-.276-.428-.483H6.115a.392.392,0,1,0,0-.783H1.263c.18-.2.351-.4.422-.476L2.572,1A.391.391,0,0,0,1.99.48L.134,2.562A.391.391,0,0,0,0,2.857s0,.008,0,.012a.391.391,0,0,0,.119.274l1.87,2.1a.392.392,0,0,0,.553.029Z" transform="translate(0 4.599)"/>
        <path id="Caminho_3843" data-name="Caminho 3843" class="cls-2" d="M3.964.451A.392.392,0,0,0,3.935,1l.888.985c.072.08.245.276.428.483H.392a.392.392,0,0,0,0,.783H5.244c-.18.2-.351.4-.422.476l-.888.986a.391.391,0,0,0,.582.524L6.373,3.159a.391.391,0,0,0,.134-.295s0-.008,0-.012a.391.391,0,0,0-.119-.274L4.517.48A.392.392,0,0,0,3.964.451Z" transform="translate(0 -0.35)"/>
      </g>
    </g>
  </g>
</svg>
