<svg xmlns="http://www.w3.org/2000/svg" width="38.48" height="38.48" viewBox="0 0 38.48 38.48">
  <defs>
    <style>
      .cls-1 {
        fill: rgba(255,255,255,0);
      }

      .cls-2 {
        fill: #215aff;
      }
    </style>
  </defs>
  <g id="icon-wallet" transform="translate(-564 -291)">
    <rect id="Retângulo_438" data-name="Retângulo 438" class="cls-1" width="38.48" height="38.48" rx="19" transform="translate(564 291)"/>
    <g id="Grupo_4014" data-name="Grupo 4014" transform="translate(3749.035 1523.23)">
      <path id="Caminho_3768" data-name="Caminho 3768" class="cls-2" d="M2.605,15.963A2.616,2.616,0,0,1,.013,13.329V6.572q0-.1.007-.2c0,.059-.007.124-.007.2v.454h0C-.007,5.712,0,4.858.019,4.679A2.508,2.508,0,0,1,2.1,2.631c.042,0,.571-.149,1.372-.375C5.756,1.612,10,.413,12.162.039a2.6,2.6,0,0,1,3.011,2.143V4.1a2.637,2.637,0,0,1,1.7,2.473v6.758a2.616,2.616,0,0,1-2.592,2.634H8.69v0ZM2.968,5.588a1.309,1.309,0,0,0-1.3,1.319v6.07a1.309,1.309,0,0,0,1.3,1.319h5.6v0h5.345a1.309,1.309,0,0,0,1.3-1.319V6.9a1.309,1.309,0,0,0-1.3-1.319Zm9.123-3.861L3.751,3.934c2.887-.006,7.11-.007,9.833,0L13.6,2.8a1.3,1.3,0,0,0-1.505-1.074Z" transform="translate(-3174.036 -1221.75)"/>
      <path id="Caminho_3769" data-name="Caminho 3769" class="cls-2" d="M9.767-.73A1.245,1.245,0,1,1,8.521.515,1.245,1.245,0,0,1,9.767-.73Z" transform="translate(-3170.896 -1212.425)"/>
    </g>
  </g>
</svg>
