<svg xmlns="http://www.w3.org/2000/svg" width="38.48" height="38.48" viewBox="0 0 38.48 38.48">
    <defs>
        <style>
            .cls-2{fill:#215aff}
        </style>
    </defs>
    <g id="Grupo_4050" data-name="Grupo 4050" transform="translate(-396 -1127)">
        <g id="Retângulo_447" data-name="Retângulo 447" transform="translate(396 1127)" style="fill:transparent;stroke:#e6e7e9">
            <rect width="38.48" height="38.48" rx="19" style="stroke:none"/>
            <rect x=".5" y=".5" width="37.48" height="37.48" rx="18.5" style="fill:none"/>
        </g>
        <g id="Grupo_4045" data-name="Grupo 4045" transform="translate(3614.625 1858)">
            <path id="Caminho_3809" data-name="Caminho 3809" class="cls-2" d="M200.133 103.772a1.046 1.046 0 0 0-1.045-1.045h-.76a.475.475 0 1 1 0-.95h.95a.285.285 0 0 1 .285.285.285.285 0 0 0 .57 0 .856.856 0 0 0-.855-.855h-.285v-.475a.285.285 0 1 0-.57 0v.475h-.095a1.045 1.045 0 1 0 0 2.089h.76a.475.475 0 1 1 0 .95h-.95a.285.285 0 0 1-.285-.285.285.285 0 1 0-.57 0 .856.856 0 0 0 .855.855h.285v.475a.285.285 0 0 0 .57 0v-.475h.095a1.046 1.046 0 0 0 1.045-1.044z" transform="translate(-3398.029 -818.135)"/>
            <path id="Elipse_41" data-name="Elipse 41" class="cls-2" d="M4.916 1.157a3.759 3.759 0 1 0 3.759 3.759 3.764 3.764 0 0 0-3.759-3.759m0-1.157A4.916 4.916 0 1 1 0 4.916 4.916 4.916 0 0 1 4.916 0z" transform="translate(-3204.215 -720)"/>
            <path id="Caminho_3810" data-name="Caminho 3810" class="cls-2" d="M9.013 6.613c-.2-.051-.657-.192-1.231-.37-.911-.282-2.806-.869-3.149-.886a2.481 2.481 0 0 0-1.163.571v.052a.578.578 0 0 1-.578.578H.578A.578.578 0 0 1 0 5.98V.578A.578.578 0 0 1 .578 0h2.314a.578.578 0 0 1 .578.578A3.909 3.909 0 0 1 5.98.029a4.967 4.967 0 0 1 1.538.509 3.547 3.547 0 0 0 1.519.444c1.2 0 1.978.021 2.521.066a2.4 2.4 0 0 1 1.494.884c.031.04.06.079.088.12A27.99 27.99 0 0 1 15.753.8a1.772 1.772 0 0 1 2.454.852.577.577 0 0 1 0 .4.572.572 0 0 1-.235.325c-.078.049-.6.4-1.2.8-1.493 1-3.75 2.5-4.444 2.927A4.447 4.447 0 0 1 10 6.723a4.14 4.14 0 0 1-.987-.11zM.868 5.69H2.6V.868H.868zm7.256-.552c.536.166 1 .31 1.173.353a3.456 3.456 0 0 0 2.419-.374c.677-.417 3.013-1.974 4.409-2.9l.644-.429a1.119 1.119 0 0 0-.6.092 29.474 29.474 0 0 0-2.687 1.307 1.942 1.942 0 0 1-.019.2.49.49 0 0 1-.23.325c-.188.094-4.117-.059-4.252-.064a.434.434 0 0 1 .013-.867h.014c.028 0 2.431.073 3.578.1a1.1 1.1 0 0 0-.211-.411 1.557 1.557 0 0 0-.887-.558c-.518-.044-1.273-.063-2.448-.063a4.279 4.279 0 0 1-1.884-.525A4.24 4.24 0 0 0 5.877.89a3.139 3.139 0 0 0-2.406.744V4.55a2.369 2.369 0 0 1 1.165-.35 20.847 20.847 0 0 1 3.488.939z" transform="translate(-3208.626 -710.437)"/>
        </g>
    </g>
</svg>
