<svg xmlns="http://www.w3.org/2000/svg" width="38.48" height="38.48" viewBox="0 0 38.48 38.48">
  <defs>
    <style>
      .cls-1 {
        fill: rgba(255,255,255,0);
      }
    </style>
  </defs>
  <g id="icon-closed-eye" transform="translate(-564 -291)">
    <rect id="Retângulo_438" data-name="Retângulo 438" class="cls-1" width="38.48" height="38.48" rx="19" transform="translate(564 291)"/>
    <path id="Caminho_3829" data-name="Caminho 3829" class="cls-2" d="M19.811,21.067,15.847,17.1a10.129,10.129,0,0,1-3.378,1.35,8.8,8.8,0,0,1-5.387-.528c-2.326-.977-4.417-2.8-6.454-5.938A4.717,4.717,0,0,1,0,10.733C0,10.057,1.179,8.5,1.7,7.805A23.087,23.087,0,0,1,4.065,5.322l-3.8-3.8A.889.889,0,0,1,1.517.26L5.942,4.685c.018.012.035.025.051.038a.8.8,0,0,1,.156.169L9.4,8.139l.024.024L16.556,15.3l.029.029,4.482,4.482a.888.888,0,1,1-1.256,1.256ZM3.985,7.873a25.257,25.257,0,0,0-2.1,2.767A12.963,12.963,0,0,0,7.77,16.288a7.3,7.3,0,0,0,4.244.482,6.718,6.718,0,0,0,2.533-.967l-2.061-2.061a3.555,3.555,0,0,1-4.9-4.9L5.324,6.581C4.961,6.9,4.495,7.332,3.985,7.873Zm4.89,3.3a1.777,1.777,0,0,0,2.284,1.247L8.911,10.168A1.776,1.776,0,0,0,8.875,11.17Zm9.1,3.03a.889.889,0,0,1-.13-1.25c.01-.012.876-1.081,1.64-2.211A13.018,13.018,0,0,0,13.62,5.056a7.341,7.341,0,0,0-4.6-.43A.888.888,0,1,1,8.589,2.9a9.126,9.126,0,0,1,5.72.516c2.326.977,4.4,2.842,6.433,5.974a4.848,4.848,0,0,1,.6,1.259,8.2,8.2,0,0,1-1.332,2.411c-.346.469-.755.974-.783,1.009a.888.888,0,0,1-1.25.13Z" transform="translate(572.998 299.244)"/>
  </g>
</svg>
