<svg xmlns="http://www.w3.org/2000/svg" width="38.48" height="38.48" viewBox="0 0 38.48 38.48">
    <defs>
        <style>
            .cls-1{fill:#215aff}
        </style>
    </defs>
    <g id="icon-hand" transform="translate(-172 -291)">
        <g id="icon-partner" transform="translate(180.998 302)">
            <path id="Caminho_3220" data-name="Caminho 3220" class="cls-1" d="M391.98 61.523a.395.395 0 1 0-.559 0 .4.4 0 0 0 .559 0zm0 0" transform="translate(-375.851 -58.445)"/>
            <path id="Caminho_3221" data-name="Caminho 3221" class="cls-1" d="M114.089 82.238a.395.395 0 1 0-.558 0 .4.4 0 0 0 .558 0zm0 0" transform="translate(-108.936 -78.343)"/>
            <path id="Caminho_3222" data-name="Caminho 3222" class="cls-1" d="m55.244 111.057 1.182-1.182a.395.395 0 1 0-.559-.558l-1.182 1.183a.395.395 0 0 0 .559.558zm0 0" transform="translate(-52.415 -104.888)"/>
            <path id="Caminho_3223" data-name="Caminho 3223" class="cls-1" d="M419.395 91.654a.395.395 0 0 0 .559-.558l-.788-.788a.395.395 0 0 0-.559.558zm0 0" transform="translate(-401.963 -86.629)"/>
            <path id="Caminho_3224" data-name="Caminho 3224" class="cls-1" d="M20.1 4.583 15.637.114a.4.4 0 0 0-.55-.008l-2 1.886a1.655 1.655 0 0 1-1.233.558 3.134 3.134 0 0 0-2.297.85 2.941 2.941 0 0 0-1.848-.8L5.734.628a.4.4 0 0 0-.559 0L.115 5.689a.394.394 0 0 0-.009.549l.009.01 3.3 3.292-.139.139a1.381 1.381 0 0 0 .992 2.358 1.381 1.381 0 0 0 1.4 1.4 1.38 1.38 0 0 0 1.4 1.4 1.382 1.382 0 0 0 2.359.993l.14-.14.14.14a1.382 1.382 0 0 0 2.359-.992 1.38 1.38 0 0 0 1.4-1.4 1.382 1.382 0 0 0 1.4-1.4 1.381 1.381 0 0 0 .992-2.358l-.158-.14c2.754-2.751-.73.736 4.4-4.4a.4.4 0 0 0 0-.558zM.953 5.968l4.5-4.5 1.519 1.515-4.5 4.5zm2.879 5.107a.592.592 0 0 1 0-.838l1.4-1.4a.592.592 0 0 1 .838.838l-1.4 1.4a.594.594 0 0 1-.838 0zm1.4 1.4a.592.592 0 0 1 0-.838l1.4-1.4a.592.592 0 1 1 .838.838l-1.4 1.4a.593.593 0 0 1-.838 0zm1.4 1.4a.592.592 0 0 1 0-.838l1.4-1.4a.592.592 0 0 1 .838.838l-1.4 1.4a.594.594 0 0 1-.838 0zm1.4 1.4a.592.592 0 0 1 0-.838l1.4-1.4a.592.592 0 0 1 .838.838l-1.4 1.4a.593.593 0 0 1-.838 0zm3.072 0a.593.593 0 0 1-.838 0l-.14-.14.7-.7a1.427 1.427 0 0 0 .129-.15l.15.15a.592.592 0 0 1 0 .838zm4.189-4.189a.594.594 0 0 1-.838 0L12.629 9.26a.395.395 0 0 0-.559.558l1.815 1.815a.592.592 0 0 1-.838.838l-1.815-1.816a.4.4 0 0 0-.559.559l1.815 1.815a.592.592 0 0 1-.419 1.011c-.375 0-.5-.3-.852-.607a1.382 1.382 0 0 0-1.4-1.368 1.381 1.381 0 0 0-1.4-1.4 1.381 1.381 0 0 0-1.4-1.4 1.382 1.382 0 0 0-2.347-.983l-.7.7-.94-.939 4.649-4.649A2.133 2.133 0 0 1 9 3.955L7.881 5.071a1.58 1.58 0 0 0 2.234 2.234l1.117-1.117 4.049 4.05a.593.593 0 0 1 0 .837zm-.139-2.094-3.363-3.363.279-.279a.4.4 0 0 0-.559-.559L9.557 6.747A.79.79 0 0 1 8.44 5.629l1.608-1.608a2.353 2.353 0 0 1 1.8-.677 2.319 2.319 0 0 0 1.493-.523l3.933 4.035-2.131 2.125zM17.832 6.3l-3.908-4.01L15.35.944l3.917 3.918zm0 0" transform="translate(.001 .001)"/>
        </g>
        <rect id="Retângulo_445" data-name="Retângulo 445" width="38.48" height="38.48" rx="19" transform="translate(172 291)" style="fill:transparent"/>
    </g>
</svg>
