<svg xmlns="http://www.w3.org/2000/svg" width="38.48" height="38.48" viewBox="0 0 38.48 38.48">
    <defs>
        <style>
            .cls-2{fill:#215aff}
        </style>
    </defs>
    <g id="icon-plus-circle-outline" transform="translate(-396 -958.242)">
        <g id="Retângulo_447" data-name="Retângulo 447" transform="translate(396 958.242)" style="fill:transparent;stroke:#e6e7e9">
            <rect width="38.48" height="38.48" rx="19" style="stroke:none"/>
            <rect x=".5" y=".5" width="37.48" height="37.48" rx="18.5" style="fill:none"/>
        </g>
        <g id="plus-circle" transform="translate(406 968.242)">
            <path id="Elipse_47" data-name="Elipse 47" class="cls-2" d="M7-1a8 8 0 0 1 8 8 8 8 0 0 1-8 8 8 8 0 0 1-8-8 8 8 0 0 1 8-8zm0 14.554A6.549 6.549 0 1 0 .455 7 6.557 6.557 0 0 0 7 13.554z" transform="translate(2 2)"/>
            <path id="Linha_119" data-name="Linha 119" class="cls-2" d="M-.272 6.277A.728.728 0 0 1-1 5.549V-.272A.728.728 0 0 1-.272-1a.728.728 0 0 1 .728.728v5.821a.728.728 0 0 1-.728.728z" transform="translate(9.277 6.366)"/>
            <path id="Linha_120" data-name="Linha 120" class="cls-2" d="M5.549.455H-.272A.728.728 0 0 1-1-.272.728.728 0 0 1-.272-1h5.821a.728.728 0 0 1 .728.728.728.728 0 0 1-.728.727z" transform="translate(6.366 9.277)"/>
        </g>
    </g>
</svg>
