<svg xmlns="http://www.w3.org/2000/svg" width="38.48" height="38.48" viewBox="0 0 38.48 38.48">
    <defs>
        <style>
            .cls-2{fill:#215aff}
        </style>
    </defs>
    <g id="filled" transform="translate(-508 -1183.516)">
        <rect id="Retângulo_447" data-name="Retângulo 447" width="38.48" height="38.48" rx="19" transform="translate(508 1183.516)" style="fill:#e6e7e9"/>
        <g id="Grupo_4047" data-name="Grupo 4047" transform="translate(3725.309 1835.586)">
            <path id="Caminho_3817" data-name="Caminho 3817" class="cls-2" d="M4.421 16.228h-.009a4.876 4.876 0 0 1-3.734-2.28 4.519 4.519 0 0 1-.666-2.725A5.307 5.307 0 0 1 .53 9.347C.836 8.7 2.473 6.229 3.149 5.215a1.082 1.082 0 0 1 .081-1.852L2.494.755A.407.407 0 0 1 2.642.32a1.6 1.6 0 0 1 .9-.29 1.4 1.4 0 0 1 .352.045 1.285 1.285 0 0 1 .44.265.972.972 0 0 0 .455.26H4.8a.7.7 0 0 0 .516-.228A1.183 1.183 0 0 1 6.2.011a1.112 1.112 0 0 1 .872.372.6.6 0 0 0 .468.212h.024C7.72.6 7.79.539 7.945.4a1.408 1.408 0 0 1 .673-.381A1.015 1.015 0 0 1 8.816 0a1.788 1.788 0 0 1 .9.312.4.4 0 0 1 .158.447l-.76 2.6a1.082 1.082 0 0 1 .069 1.867c.493.771 1.544 2.4 2.333 3.545l.01.015a4.925 4.925 0 0 1 .234 5.149l-.013.021a5.238 5.238 0 0 1-1.822 1.678 4.1 4.1 0 0 1-1.825.606H5.451c-.518 0-.862-.004-1.03-.012zM1.262 9.7a3.911 3.911 0 0 0 .111 3.832 4.045 4.045 0 0 0 3.092 1.89c.154.007.487.011.989.011h2.649a4.424 4.424 0 0 0 2.956-1.9 4.076 4.076 0 0 0-.213-4.3c-.9-1.3-2.119-3.208-2.5-3.811H3.991C3.225 6.56 1.541 9.112 1.262 9.7zm2.214-5.386a.271.271 0 0 0 .271.271h4.858a.271.271 0 1 0 0-.541H3.747a.271.271 0 0 0-.271.27zM3.368.864 4.027 3.2h4.292L9 .852a.579.579 0 0 0-.189-.04h-.035a.663.663 0 0 0-.3.191 1.281 1.281 0 0 1-.921.4h-.066a1.391 1.391 0 0 1-.984-.44A.338.338 0 0 0 6.2.822a.4.4 0 0 0-.34.153 1.475 1.475 0 0 1-1 .429h-.069a1.559 1.559 0 0 1-.959-.428 1.961 1.961 0 0 0-.161-.12.578.578 0 0 0-.13-.015.689.689 0 0 0-.173.023z" transform="translate(-3204.306 -641.069)"/>
            <path id="Caminho_3816" data-name="Caminho 3816" class="cls-2" d="M200.728 104.466a1.264 1.264 0 0 0-1.263-1.263h-.918a.574.574 0 1 1 0-1.148h1.148a.345.345 0 0 1 .344.344.344.344 0 1 0 .689 0 1.034 1.034 0 0 0-1.033-1.033h-.344v-.574a.344.344 0 1 0-.689 0v.574h-.115a1.263 1.263 0 1 0 0 2.525h.918a.574.574 0 1 1 0 1.148h-1.148a.345.345 0 0 1-.344-.344.344.344 0 0 0-.689 0 1.034 1.034 0 0 0 1.033 1.033h.344v.574a.344.344 0 0 0 .689 0v-.574h.115a1.264 1.264 0 0 0 1.263-1.262z" transform="translate(-3397.141 -733.928)"/>
        </g>
    </g>
</svg>
