<svg xmlns="http://www.w3.org/2000/svg" width="38.48" height="38.48" viewBox="0 0 38.48 38.48">
  <defs>
    <style>
      .cls-1 {
        fill: rgba(255,255,255,0);
        stroke: #e6e7e9;
      }

      .cls-2 {
        fill: #215aff;
      }

      .cls-3 {
        stroke: none;
      }

      .cls-4 {
        fill: none;
      }
    </style>
  </defs>
  <g id="icon-info-circle-outline" transform="translate(-452 -958)">
    <g id="Retângulo_447" data-name="Retângulo 447" class="cls-1" transform="translate(452 958)">
      <rect class="cls-3" width="38.48" height="38.48" rx="19"/>
      <rect class="cls-4" x="0.5" y="0.5" width="37.48" height="37.48" rx="18.5"/>
    </g>
    <g id="plus-circle" transform="translate(461.938 968.18)">
      <path id="Elipse_47" data-name="Elipse 47" class="cls-2" d="M7.063-1a8.062,8.062,0,0,1,8.063,8.063,8.062,8.062,0,0,1-8.063,8.063A8.062,8.062,0,0,1-1,7.063,8.062,8.062,0,0,1,7.063-1Zm0,14.659a6.6,6.6,0,1,0-6.6-6.6A6.6,6.6,0,0,0,7.063,13.659Z" transform="translate(2 2)"/>
      <g id="Grupo_3794" data-name="Grupo 3794" transform="translate(8.33 5.398)">
        <path id="Linha_147" data-name="Linha 147" class="cls-2" d="M-.267,3.4A.733.733,0,0,1-1,2.665V-.267A.733.733,0,0,1-.267-1a.733.733,0,0,1,.733.733V2.665A.733.733,0,0,1-.267,3.4Z" transform="translate(1 3.932)"/>
        <path id="Linha_148" data-name="Linha 148" class="cls-2" d="M-.26.466H-.267A.733.733,0,0,1-1-.267.733.733,0,0,1-.267-1H-.26a.733.733,0,0,1,.733.733A.733.733,0,0,1-.26.466Z" transform="translate(1 1)"/>
      </g>
    </g>
  </g>
</svg>
