<svg xmlns="http://www.w3.org/2000/svg" width="38.48" height="38.48" viewBox="0 0 38.48 38.48">
    <defs>
        <style>
            .cls-2{fill:#215aff}
        </style>
    </defs>
    <g id="icon-cashback-outline" transform="translate(-284 -958.242)">
        <g id="Retângulo_447" data-name="Retângulo 447" transform="translate(284 958.242)" style="fill:transparent;stroke:#e6e7e9">
            <rect width="38.48" height="38.48" rx="19" style="stroke:none"/>
            <rect x=".5" y=".5" width="37.48" height="37.48" rx="18.5" style="fill:none"/>
        </g>
        <g id="Grupo_4015" data-name="Grupo 4015" transform="translate(3498.475 1994.152)">
            <path id="Caminho_3216" data-name="Caminho 3216" class="cls-2" d="M200.8 104.545a1.289 1.289 0 0 0-1.288-1.288h-.936a.585.585 0 1 1 0-1.171h1.171a.352.352 0 0 1 .351.351.351.351 0 1 0 .7 0 1.055 1.055 0 0 0-1.053-1.054h-.351v-.583a.351.351 0 1 0-.7 0v.585h-.117a1.288 1.288 0 1 0 0 2.575h.936a.585.585 0 1 1 0 1.171h-1.171a.352.352 0 0 1-.351-.351.351.351 0 0 0-.7 0 1.055 1.055 0 0 0 1.053 1.053h.351v.585a.351.351 0 0 0 .7 0v-.585h.117a1.289 1.289 0 0 0 1.288-1.288z" transform="translate(-3394.768 -1122.257)"/>
            <path id="Caminho_3217" data-name="Caminho 3217" class="cls-2" d="M64.044 11.56a5.786 5.786 0 0 0 .213-2.41 6.522 6.522 0 0 0-6.58-6.112 6.669 6.669 0 0 0-6.7 6.655 6.45 6.45 0 0 0 6.224 6.66h.37a4.2 4.2 0 1 0 6.472-4.793zM57.13 14.8c-2.9 0-4.721-2.2-4.721-5.109a5.267 5.267 0 0 1 10.524-.343 4.353 4.353 0 0 1-.084 1.518 3.6 3.6 0 0 0-.684-.173 4.354 4.354 0 0 0-4.915 4.1zm4.292 2.968a2.926 2.926 0 1 1 2.926-2.926 2.926 2.926 0 0 1-2.926 2.928z" transform="translate(-3253.453 -1027.949)"/>
            <path id="Caminho_3218" data-name="Caminho 3218" class="cls-2" d="M325.454 311.437h1.639a.352.352 0 0 0 .351-.351v-.936a.351.351 0 0 0-.351-.351h-.793l.337.337a.351.351 0 1 1-.5.5l-.936-.936a.351.351 0 0 1 0-.5l.936-.936a.351.351 0 0 1 .5.5l-.337.337h.791a1.055 1.055 0 0 1 1.054 1.053v.936a1.055 1.055 0 0 1-1.054 1.053h-1.639a.351.351 0 1 1 0-.7z" transform="translate(-3518.46 -1323.375)"/>
        </g>
    </g>
</svg>
