<svg xmlns="http://www.w3.org/2000/svg" width="38.48" height="38.48" viewBox="0 0 38.48 38.48">
  <defs>
    <style>
      .cls-1 {
        fill: #e6e7e9;
      }

      .cls-2 {
        fill: #215aff;
      }
    </style>
  </defs>
  <g id="icon-transações-filled" transform="translate(-396 -403.002)">
    <rect id="Retângulo_441" data-name="Retângulo 441" class="cls-1" width="38.48" height="38.48" rx="19" transform="translate(396 403.002)"/>
    <path id="icon-transações" class="cls-2" d="M1433.9,1502.889a.633.633,0,0,1-.448-.186l-5.179-5.179a.633.633,0,0,1,0-.9l5.179-5.179a.633.633,0,0,1,1.081.448v2.245h8.648a.633.633,0,0,1,.633.633v1.4l3.6-3.6-3.6-3.6v1.215a.633.633,0,0,1-.633.633h-6.215a.633.633,0,0,1,0-1.267h5.581v-2.111a.633.633,0,0,1,1.082-.448l5.125,5.125a.633.633,0,0,1,0,.9l-5.125,5.125a.634.634,0,0,1-1.082-.448v-2.3H1433.9a.634.634,0,0,1-.633-.634v-1.349l-3.65,3.65,3.65,3.65v-1.376a.633.633,0,0,1,.633-.634h6.188a.633.633,0,0,1,0,1.267h-5.554v2.272a.634.634,0,0,1-.633.634Z" transform="translate(-1023.275 -1072.615)"/>
  </g>
</svg>
