<svg xmlns="http://www.w3.org/2000/svg" width="38.48" height="38.48" viewBox="0 0 38.48 38.48">
  <defs>
    <style>
      .cls-1 {
        fill: rgba(255,255,255,0);
        stroke: #e6e7e9;
      }

      .cls-2 {
        fill: #215aff;
      }

      .cls-3 {
        stroke: none;
      }

      .cls-4 {
        fill: none;
      }
    </style>
  </defs>
  <g id="icon-calendar-outline" transform="translate(-452 -519)">
    <g id="Ret창ngulo_447" data-name="Ret창ngulo 447" class="cls-1" transform="translate(452 519)">
      <rect class="cls-3" width="38.48" height="38.48" rx="19"/>
      <rect class="cls-4" x="0.5" y="0.5" width="37.48" height="37.48" rx="18.5"/>
    </g>
    <g id="calendar" transform="translate(462 529)">
      <path id="Ret창ngulo_268" data-name="Ret창ngulo 268" class="cls-2" d="M1.182-1H11.364a2.184,2.184,0,0,1,2.182,2.182V11.364a2.184,2.184,0,0,1-2.182,2.182H1.182A2.184,2.184,0,0,1-1,11.364V1.182A2.184,2.184,0,0,1,1.182-1ZM11.364,12.091a.728.728,0,0,0,.727-.727V1.182a.728.728,0,0,0-.727-.727H1.182a.728.728,0,0,0-.727.727V11.364a.728.728,0,0,0,.727.727Z" transform="translate(3 3.455)"/>
      <path id="Linha_68" data-name="Linha 68" class="cls-2" d="M-.273,3.364A.727.727,0,0,1-1,2.636V-.273A.727.727,0,0,1-.273-1a.727.727,0,0,1,.727.727V2.636A.727.727,0,0,1-.273,3.364Z" transform="translate(12.455 2)"/>
      <path id="Linha_69" data-name="Linha 69" class="cls-2" d="M-.273,3.364A.727.727,0,0,1-1,2.636V-.273A.727.727,0,0,1-.273-1a.727.727,0,0,1,.727.727V2.636A.727.727,0,0,1-.273,3.364Z" transform="translate(6.636 2)"/>
      <path id="Linha_70" data-name="Linha 70" class="cls-2" d="M12.818.455H-.273A.727.727,0,0,1-1-.273.727.727,0,0,1-.273-1H12.818a.727.727,0,0,1,.727.727A.727.727,0,0,1,12.818.455Z" transform="translate(3 7.818)"/>
    </g>
  </g>
</svg>
