<svg xmlns="http://www.w3.org/2000/svg" width="38.48" height="38.48" viewBox="0 0 38.48 38.48">
  <defs>
    <style>
      .cls-1 {
        fill: rgba(255,255,255,0);
        stroke: #e6e7e9;
      }

      .cls-2 {
        fill: #215aff;
      }

      .cls-3 {
        stroke: none;
      }

      .cls-4 {
        fill: none;
      }
    </style>
  </defs>
  <g id="icon-home-outline" transform="translate(-116 -1127)">
    <g id="Retângulo_438" data-name="Retângulo 438" class="cls-1" transform="translate(116 1127)">
      <rect class="cls-3" width="38.48" height="38.48" rx="19"/>
      <rect class="cls-4" x="0.5" y="0.5" width="37.48" height="37.48" rx="18.5"/>
    </g>
    <path id="Caminho_3852" data-name="Caminho 3852" class="cls-2" d="M10.261,16.025a.437.437,0,0,1-.435-.436V10.935a.732.732,0,0,0-.731-.731H7.78a.732.732,0,0,0-.731.731v4.653a.436.436,0,0,1-.435.436H3.506a2.316,2.316,0,0,1-1.912-2.041V8.81H1.37a1.365,1.365,0,0,1-.968-.4,1.908,1.908,0,0,1,0-2.341L7.456.4A1.362,1.362,0,0,1,8.424,0H8.45a1.36,1.36,0,0,1,.968.4l7.056,5.666a1.907,1.907,0,0,1,0,2.341,1.363,1.363,0,0,1-.968.4H15.28v5.174a2.316,2.316,0,0,1-1.912,2.041ZM9.826,9.017c.847,0,1.353.975,1.353,1.918v3.78h1.972a.731.731,0,0,0,.731-.731V8.369a.436.436,0,0,1,.435-.435h.877a.5.5,0,0,0,.353-.849l0,0L8.8,1.716a.5.5,0,0,0-.059-.051v.021a.462.462,0,0,0-.612,0V1.666a.5.5,0,0,0-.059.051L1.329,7.081l0,0a.5.5,0,0,0,.353.849h.877a.436.436,0,0,1,.435.435v5.615a.732.732,0,0,0,.731.731H5.7v-3.78c0-.943.506-1.918,1.353-1.918H9.826Z" transform="translate(127 1138)"/>
  </g>
</svg>
