<svg xmlns="http://www.w3.org/2000/svg" width="38.48" height="38.48" viewBox="0 0 38.48 38.48">
    <defs>
        <style>
            .cls-2{fill:#215aff}
        </style>
    </defs>
    <g id="icon-transfer-outline" transform="translate(-60 -291.242)">
        <g id="Retângulo_447" data-name="Retângulo 447" transform="translate(60 291.242)" style="fill:transparent;stroke:#e6e7e9">
            <rect width="38.48" height="38.48" rx="19" style="stroke:none"/>
            <rect x=".5" y=".5" width="37.48" height="37.48" rx="18.5" style="fill:none"/>
        </g>
        <g id="Grupo_4079" data-name="Grupo 4079" transform="translate(4393.623 1606.982)">
            <path id="Caminho_3796" data-name="Caminho 3796" class="cls-2" d="M9.072 1.262 4.036 4.876h10.073L9.072 1.262m0-1.036a.518.518 0 0 1 .3.1l6.418 4.55a.519.519 0 0 1-.3.942H2.655a.519.519 0 0 1-.3-.942L8.772.322a.518.518 0 0 1 .3-.096z" transform="translate(-4324.758 -1304.966)"/>
            <path id="Caminho_3796-2" data-name="Caminho 3796" class="cls-2" d="M6.723.934H.467a.467.467 0 0 1 0-.934H9.2a.467.467 0 0 1 0 .934z" transform="translate(-4322.623 -1292.057)"/>
            <g id="Grupo_3339" data-name="Grupo 3339" transform="translate(-4321.066 -1298.364)">
                <path id="Caminho_3797" data-name="Caminho 3797" class="cls-2" d="M2.581.934H.467a.467.467 0 1 1 0-.934h4.59a.467.467 0 0 1 0 .934z" transform="rotate(-90 2.762 2.762)"/>
                <path id="Caminho_3798" data-name="Caminho 3798" class="cls-2" d="M2.581.934H.467a.467.467 0 1 1 0-.934h4.59a.467.467 0 0 1 0 .934z" transform="rotate(-90 5.272 .252)"/>
            </g>
            <g id="Grupo_3515" data-name="Grupo 3515" transform="translate(-4311.935 -1298.62)">
                <path id="Caminho_3842" data-name="Caminho 3842" class="cls-2" d="M2.543 5.27a.392.392 0 0 0 .029-.553l-.888-.985-.428-.483h4.859a.392.392 0 1 0 0-.783H1.263c.18-.2.351-.4.422-.476L2.572 1A.391.391 0 0 0 1.99.48L.134 2.562A.391.391 0 0 0 0 2.857v.012a.391.391 0 0 0 .119.274l1.87 2.1a.392.392 0 0 0 .553.029z" transform="translate(0 4.599)"/>
                <path id="Caminho_3843" data-name="Caminho 3843" class="cls-2" d="M3.964.451A.392.392 0 0 0 3.935 1l.888.985.428.483H.392a.392.392 0 0 0 0 .783h4.852c-.18.2-.351.4-.422.476l-.888.986a.391.391 0 0 0 .582.524l1.857-2.078a.391.391 0 0 0 .134-.295v-.012a.391.391 0 0 0-.119-.274L4.517.48a.392.392 0 0 0-.553-.029z" transform="translate(0 -.35)"/>
            </g>
        </g>
    </g>
</svg>
