<svg xmlns="http://www.w3.org/2000/svg" width="38.48" height="38.48" viewBox="0 0 38.48 38.48">
  <defs>
    <style>
      .cls-1 {
        fill: rgba(230,231,233,0);
        stroke: #e6e7e9;
      }

      .cls-2 {
        fill: #215aff;
      }

      .cls-3 {
        stroke: none;
      }

      .cls-4 {
        fill: none;
      }
    </style>
  </defs>
  <g id="icon-copy-outline" transform="translate(-60 -291.242)">
    <g id="Retângulo_447" data-name="Retângulo 447" class="cls-1" transform="translate(60 291.242)">
      <rect class="cls-3" width="38.48" height="38.48" rx="19"/>
      <rect class="cls-4" x="0.5" y="0.5" width="37.48" height="37.48" rx="18.5"/>
    </g>
    <path id="Caminho_3855" data-name="Caminho 3855" class="cls-2" d="M2.1,16A2.1,2.1,0,0,1,0,13.9v-9A2.1,2.1,0,0,1,2.1,2.8H8.653a2.1,2.1,0,0,1,2.1,2.1v9a2.1,2.1,0,0,1-2.1,2.1ZM1.4,4.9v9a.7.7,0,0,0,.7.7H8.653a.7.7,0,0,0,.7-.7v-9a.7.7,0,0,0-.7-.7H2.1A.7.7,0,0,0,1.4,4.9Zm10.75,6.772V2.618A1.224,1.224,0,0,0,10.928,1.4h-6.6A.7.7,0,0,1,3.709.7.693.693,0,0,1,4.326,0h6.784a2.447,2.447,0,0,1,2.445,2.445v9.228a.619.619,0,0,1-.649.58C12.568,12.252,12.15,12.01,12.15,11.673Z" transform="translate(72 302.243)"/>
  </g>
</svg>
