<svg xmlns="http://www.w3.org/2000/svg" width="38.48" height="38.48" viewBox="0 0 38.48 38.48">
    <defs>
        <style>
            .cls-2{fill:#215aff}
        </style>
    </defs>
    <g id="icon-historico-outline" transform="translate(-340 -958.242)">
        <g id="Retângulo_447" data-name="Retângulo 447" transform="translate(340 958.242)" style="fill:transparent;stroke:#e6e7e9">
            <rect width="38.48" height="38.48" rx="19" style="stroke:none"/>
            <rect x=".5" y=".5" width="37.48" height="37.48" rx="18.5" style="fill:none"/>
        </g>
        <g id="Grupo_4016" data-name="Grupo 4016" transform="translate(3588.301 2038.242)">
            <path id="Caminho_3770" data-name="Caminho 3770" class="cls-2" d="M7.989 4.077a2.039 2.039 0 0 1 0-4.077H17.5a2.039 2.039 0 0 1 0 4.077zm-.68-2.039a.681.681 0 0 0 .679.679H17.5a.679.679 0 1 0 0-1.359H7.989a.681.681 0 0 0-.68.68zM0 2.038a2.038 2.038 0 1 1 2.038 2.038A2.038 2.038 0 0 1 0 2.038zm1.281 0a.757.757 0 1 0 .757-.757.757.757 0 0 0-.757.757z" transform="translate(-3239.3 -1069)"/>
            <path id="Caminho_3771" data-name="Caminho 3771" class="cls-2" d="M7.989 4.077a2.039 2.039 0 0 1 0-4.077H17.5a2.039 2.039 0 0 1 0 4.077zm-.68-2.039a.681.681 0 0 0 .679.679H17.5a.679.679 0 1 0 0-1.359H7.989a.681.681 0 0 0-.68.68zM0 2.038a2.038 2.038 0 1 1 2.038 2.038A2.038 2.038 0 0 1 0 2.038zm1.281 0a.757.757 0 1 0 .757-.757.757.757 0 0 0-.757.757z" transform="translate(-3239.3 -1062.977)"/>
            <path id="Caminho_3772" data-name="Caminho 3772" class="cls-2" d="M7.989 4.077a2.039 2.039 0 0 1 0-4.077H17.5a2.039 2.039 0 0 1 0 4.077zm-.68-2.039a.681.681 0 0 0 .679.679H17.5a.679.679 0 1 0 0-1.359H7.989a.681.681 0 0 0-.68.68zM0 2.038a2.038 2.038 0 1 1 2.038 2.038A2.038 2.038 0 0 1 0 2.038zm1.281 0a.757.757 0 1 0 .757-.757.757.757 0 0 0-.757.757z" transform="translate(-3239.3 -1056.953)"/>
        </g>
    </g>
</svg>
