<svg xmlns="http://www.w3.org/2000/svg" width="38.48" height="38.48" viewBox="0 0 38.48 38.48">
  <defs>
    <style>
      .cls-1 {
        fill: rgba(255,255,255,0);
        stroke: #e6e7e9;
      }

      .cls-2 {
        fill: #215aff;
      }

      .cls-3 {
        stroke: none;
      }

      .cls-4 {
        fill: none;
      }
    </style>
  </defs>
  <g id="icon-menu-outline" transform="translate(-228 -1127)">
    <g id="Retângulo_436" data-name="Retângulo 436" class="cls-1" transform="translate(228 1127)">
      <rect class="cls-3" width="38.48" height="38.48" rx="19"/>
      <rect class="cls-4" x="0.5" y="0.5" width="37.48" height="37.48" rx="18.5"/>
    </g>
    <path id="Caminho_3853" data-name="Caminho 3853" class="cls-2" d="M21017.6,21607a.8.8,0,0,1-.8-.8v-5.6a.8.8,0,0,1,.8-.8h5.6a.8.8,0,0,1,.8.8v5.6a.8.8,0,0,1-.8.8Zm.8-1.6h4v-4h-4Zm-9.6,1.6a.8.8,0,0,1-.8-.8v-5.6a.8.8,0,0,1,.8-.8h5.6a.8.8,0,0,1,.8.8v5.6a.8.8,0,0,1-.8.8Zm.8-1.6h4v-4h-4Zm8-7.2a.8.8,0,0,1-.8-.8v-5.6a.8.8,0,0,1,.8-.8h5.6a.8.8,0,0,1,.8.8v5.6a.8.8,0,0,1-.8.8Zm.8-1.6h4v-4h-4Zm-9.6,1.6a.8.8,0,0,1-.8-.8v-5.6a.8.8,0,0,1,.8-.8h5.6a.8.8,0,0,1,.8.8v5.6a.8.8,0,0,1-.8.8Zm.8-1.6h4v-4h-4Z" transform="translate(-20769 -20453.004)"/>
  </g>
</svg>
