<svg xmlns="http://www.w3.org/2000/svg" width="38.48" height="38.48" viewBox="0 0 38.48 38.48">
    <defs>
        <style>
            .cls-2{fill:#215aff}
        </style>
    </defs>
    <g id="icon-user-outline" transform="translate(-60 -843)">
        <g id="Grupo_3995" data-name="Grupo 3995" transform="translate(0 53)">
            <g id="Retângulo_438" data-name="Retângulo 438" transform="translate(60 790)" style="fill:transparent;stroke:#e6e7e9">
                <rect width="38.48" height="38.48" rx="19" style="stroke:none"/>
                <rect x=".5" y=".5" width="37.48" height="37.48" rx="18.5" style="fill:none"/>
            </g>
        </g>
        <g id="user" transform="translate(69.039 852.24)">
            <path id="Caminho_3761" data-name="Caminho 3761" class="cls-2" d="M16.6 20.4a.8.8 0 0 1-.8-.8V18a2.4 2.4 0 0 0-2.4-2.4H7A2.4 2.4 0 0 0 4.6 18v1.6a.8.8 0 1 1-1.6 0V18a4 4 0 0 1 4-4h6.4a4 4 0 0 1 4 4v1.6a.8.8 0 0 1-.8.8z" transform="translate(0 -2.4)"/>
            <path id="Elipse_41" data-name="Elipse 41" class="cls-2" d="M3-1a4 4 0 1 1-4 4 4 4 0 0 1 4-4zm0 6.4A2.4 2.4 0 1 0 .6 3 2.4 2.4 0 0 0 3 5.4z" transform="translate(7.2 3)"/>
        </g>
    </g>
</svg>
