<svg xmlns="http://www.w3.org/2000/svg" width="38.48" height="38.48" viewBox="0 0 38.48 38.48">
    <defs>
        <style>
            .cls-2{fill:#215aff}
        </style>
    </defs>
    <g id="icon-user-document-filled" transform="translate(-116 -845.758)">
        <rect id="Retângulo_438" data-name="Retângulo 438" width="38.48" height="38.48" rx="19" transform="translate(116 845.758)" style="fill:#e6e7e9"/>
        <g id="user" transform="translate(123.316 859.723)">
            <path id="Caminho_3761" data-name="Caminho 3761" class="cls-2" d="M13.771 19.069a.634.634 0 0 1-.634-.634v-1.267a1.9 1.9 0 0 0-1.9-1.9H6.168a1.9 1.9 0 0 0-1.9 1.9v1.267a.634.634 0 0 1-1.267 0v-1.267A3.171 3.171 0 0 1 6.168 14h5.069a3.171 3.171 0 0 1 3.163 3.168v1.267a.634.634 0 0 1-.629.634z" transform="translate(0 -5.795)"/>
            <path id="Elipse_41" data-name="Elipse 41" class="cls-2" d="M2.168-1A3.168 3.168 0 1 1-1 2.168 3.171 3.171 0 0 1 2.168-1zm0 5.069a1.9 1.9 0 1 0-1.9-1.9 1.9 1.9 0 0 0 1.9 1.9z" transform="translate(6.534 1.602)"/>
            <path id="Caminho_3788" data-name="Caminho 3788" class="cls-2" d="M6.706 16a.634.634 0 0 1 0-1.267h3.357c.435 0 .793-.561.793-.977V5.228H8.691a2.1 2.1 0 0 1-2.166-2.149c0-.265-.007-1.093-.013-1.795H2.3c-.209 0-1.014-.021-1.014.789 0 .105-.01.1-.01.326v.014a.634.634 0 0 1-1.267 0S-.007 2.129.006 2A2.163 2.163 0 0 1 2.223.014h5.246c.423 0 .748-.1 1.126.224s3.312 3.224 3.312 3.224.2.146.214.657.023 7.994.023 7.994v1.87A2.158 2.158 0 0 1 10.063 16zM7.79 2.84c0 .761.329 1.115 1.111 1.115h1.778L7.79 1.285z" transform="translate(8.701 -2.723)"/>
        </g>
    </g>
</svg>
