<svg id="icon-relatorio" xmlns="http://www.w3.org/2000/svg" width="15.987" height="15.987" viewBox="0 0 15.987 15.987">
  <defs>
    <style>
      .cls-1 {
        fill: #215aff;
      }
    </style>
  </defs>
  <path id="Caminho_3328" data-name="Caminho 3328" class="cls-1" d="M32.405,7.494A1.4,1.4,0,0,0,33.38,7.1l1.379.689a1.4,1.4,0,1,0,2.662-.432l1.874-1.874A1.4,1.4,0,0,0,41.24,3.8l1.628-1.221a1.4,1.4,0,1,0-.563-.749L40.677,3.046a1.4,1.4,0,0,0-2.046,1.775L36.758,6.694a1.4,1.4,0,0,0-1.58.257L33.8,6.262a1.4,1.4,0,1,0-1.394,1.232ZM43.646.937a.468.468,0,1,1-.468.468A.469.469,0,0,1,43.646.937ZM39.9,3.747a.468.468,0,1,1-.468.468A.469.469,0,0,1,39.9,3.747ZM36.152,7.494a.468.468,0,1,1-.468.468A.469.469,0,0,1,36.152,7.494ZM32.405,5.62a.468.468,0,1,1-.468.468A.469.469,0,0,1,32.405,5.62Zm0,0" transform="translate(-30.032 0)"/>
  <path id="Caminho_3329" data-name="Caminho 3329" class="cls-1" d="M15.519,160.366h-.5v-9.9a.468.468,0,0,0-.468-.468H12.677a.468.468,0,0,0-.468.468v9.9h-.937v-7.088a.468.468,0,0,0-.468-.468H8.93a.468.468,0,0,0-.468.468v7.088H7.525v-3.341a.468.468,0,0,0-.468-.468H5.183a.468.468,0,0,0-.468.468v3.341H3.778v-5.214a.468.468,0,0,0-.468-.468H1.436a.468.468,0,0,0-.468.468v5.214h-.5a.468.468,0,0,0,0,.937h15.05a.468.468,0,0,0,0-.937Zm-2.373-9.43h.937v9.43h-.937ZM9.4,153.747h.937v6.619H9.4Zm-3.747,3.747h.937v2.873H5.652ZM1.9,155.62h.937v4.746H1.9Zm0,0" transform="translate(0 -145.316)"/>
</svg>
