<svg xmlns="http://www.w3.org/2000/svg" width="38.48" height="38.48" viewBox="0 0 38.48 38.48">
  <defs>
    <style>
      .cls-1 {
        fill: rgba(255,255,255,0);
      }

      .cls-2 {
        fill: #215aff;
      }
    </style>
  </defs>
  <g id="icon-security" transform="translate(-564 -291.242)">
    <rect id="Retângulo_438" data-name="Retângulo 438" class="cls-1" width="38.48" height="38.48" rx="19" transform="translate(564 291.242)"/>
    <path id="Caminho_3850" data-name="Caminho 3850" class="cls-2" d="M6.207,15.888a16.076,16.076,0,0,1-3.056-2.1,10.925,10.925,0,0,1-2.136-2.456A6.356,6.356,0,0,1,0,7.982V2.9a.725.725,0,0,1,.471-.679L6.276.046a.72.72,0,0,1,.509,0l5.806,2.177a.725.725,0,0,1,.471.679v5.08a6.356,6.356,0,0,1-1.015,3.351A10.925,10.925,0,0,1,9.912,13.79a16.076,16.076,0,0,1-3.056,2.1.728.728,0,0,1-.649,0ZM1.451,3.405V7.982c0,3.3,3.912,5.768,5.079,6.431,1.167-.665,5.081-3.139,5.081-6.431V3.405L6.531,1.5ZM5.98,9.668a.709.709,0,0,1-.708-.707V7.812a1.99,1.99,0,1,1,2.519,0V8.961a.709.709,0,0,1-.708.707ZM5.458,5.962a1.117,1.117,0,0,0,.485,1.255.436.436,0,0,1,.2.37l0,1.208h.772V7.587a.436.436,0,0,1,.2-.37A1.117,1.117,0,1,0,5.458,5.962Z" transform="translate(577 302.242)"/>
  </g>
</svg>
