<svg xmlns="http://www.w3.org/2000/svg" width="38.48" height="38.48" viewBox="0 0 38.48 38.48">
    <g transform="translate(-284 -1183.516)">
        <rect data-name="Retângulo 447" width="38.48" height="38.48" rx="19" transform="translate(284 1183.516)" style="fill:#e6e7e9"/>
        <path data-name="Caminho 3854" d="m21017.516 21606.566-2.793-6.287-6.291-2.8a.727.727 0 0 1 .055-1.35l14.545-5.092a.7.7 0 0 1 .242-.041.729.729 0 0 1 .516.213l.033.035.006.008.025.031v.006l.029.039c.008.012.016.025.023.039a.734.734 0 0 1 .039.09.721.721 0 0 1-.018.563l-5.064 14.48a.728.728 0 0 1-.66.488.138.138 0 0 1-.027 0 .732.732 0 0 1-.66-.422zm.586-2.264 3.432-9.8-5.391 5.393zm-7.4-7.4 4.412 1.963 5.393-5.393z" transform="translate(-20713 -20396.484)" style="fill:#215aff"/>
    </g>
</svg>
