<svg xmlns="http://www.w3.org/2000/svg" width="38.48" height="38.48" viewBox="0 0 38.48 38.48">
  <defs>
    <style>
      .cls-1 {
        fill: rgba(255,255,255,0);
        stroke: #e6e7e9;
      }

      .cls-2 {
        fill: #215aff;
      }

      .cls-3 {
        stroke: none;
      }

      .cls-4 {
        fill: none;
      }
    </style>
  </defs>
  <g id="icon-user-document-outline" transform="translate(-116 -790)">
    <g id="Retângulo_438" data-name="Retângulo 438" class="cls-1" transform="translate(116 790)">
      <rect class="cls-3" width="38.48" height="38.48" rx="19"/>
      <rect class="cls-4" x="0.5" y="0.5" width="37.48" height="37.48" rx="18.5"/>
    </g>
    <g id="user" transform="translate(123.316 803.965)">
      <path id="Caminho_3761" data-name="Caminho 3761" class="cls-2" d="M13.771,19.069a.634.634,0,0,1-.634-.634V17.168a1.9,1.9,0,0,0-1.9-1.9H6.168a1.9,1.9,0,0,0-1.9,1.9v1.267a.634.634,0,0,1-1.267,0V17.168A3.171,3.171,0,0,1,6.168,14h5.069A3.171,3.171,0,0,1,14.4,17.168v1.267A.634.634,0,0,1,13.771,19.069Z" transform="translate(0 -5.795)"/>
      <path id="Elipse_41" data-name="Elipse 41" class="cls-2" d="M2.168-1A3.168,3.168,0,1,1-1,2.168,3.171,3.171,0,0,1,2.168-1Zm0,5.069a1.9,1.9,0,1,0-1.9-1.9A1.9,1.9,0,0,0,2.168,4.069Z" transform="translate(6.534 1.602)"/>
      <path id="Caminho_3788" data-name="Caminho 3788" class="cls-2" d="M6.706,16a.634.634,0,0,1,0-1.267h3.357c.435,0,.793-.561.793-.977V5.228c-.719,0-1.708,0-2.165,0A2.1,2.1,0,0,1,6.525,3.079c0-.265-.007-1.093-.013-1.795H2.3c-.209,0-1.014-.021-1.014.789,0,.105-.01.1-.01.326h0v.014a.634.634,0,0,1-1.267,0S-.007,2.129.006,2A2.163,2.163,0,0,1,2.223.014H7.469c.423,0,.748-.1,1.126.224s3.312,3.224,3.312,3.224.2.146.214.657.023,7.994.023,7.994v1.87A2.158,2.158,0,0,1,10.063,16ZM7.79,2.84c0,.761.329,1.115,1.111,1.115h1.778L7.79,1.285Z" transform="translate(8.701 -2.723)"/>
    </g>
  </g>
</svg>
