<svg id="icon-users" xmlns="http://www.w3.org/2000/svg" width="24.494" height="15.974" viewBox="0 0 24.494 15.974">
    <g id="Grupo_3287" data-name="Grupo 3287" transform="translate(8.52)">
        <g id="Grupo_3286" data-name="Grupo 3286">
            <path id="Caminho_3330" data-name="Caminho 3330" class="cls-1" d="M174.393 85.333a3.727 3.727 0 1 0 3.727 3.727 3.732 3.732 0 0 0-3.727-3.727zm0 6.39a2.662 2.662 0 1 1 2.662-2.662 2.666 2.666 0 0 1-2.662 2.662z" transform="translate(-170.666 -85.333)"/>
        </g>
    </g>
    <g id="Grupo_3289" data-name="Grupo 3289" transform="translate(17.04 4.26)">
        <g id="Grupo_3288" data-name="Grupo 3288">
            <path id="Caminho_3331" data-name="Caminho 3331" class="cls-1" d="M344 170.667a2.662 2.662 0 1 0 2.662 2.662 2.666 2.666 0 0 0-2.662-2.662zm0 4.26a1.6 1.6 0 1 1 1.6-1.6 1.6 1.6 0 0 1-1.6 1.6z" transform="translate(-341.334 -170.667)"/>
        </g>
    </g>
    <g id="Grupo_3291" data-name="Grupo 3291" transform="translate(2.206 4.26)">
        <g id="Grupo_3290" data-name="Grupo 3290">
            <path id="Caminho_3332" data-name="Caminho 3332" class="cls-1" d="M46.844 170.667a2.662 2.662 0 1 0 2.662 2.662 2.665 2.665 0 0 0-2.662-2.662zm0 4.26a1.6 1.6 0 1 1 1.6-1.6 1.6 1.6 0 0 1-1.6 1.6z" transform="translate(-44.182 -170.667)"/>
        </g>
    </g>
    <g id="Grupo_3293" data-name="Grupo 3293" transform="translate(5.325 8.52)">
        <g id="Grupo_3292" data-name="Grupo 3292">
            <path id="Caminho_3333" data-name="Caminho 3333" class="cls-1" d="M113.588 256a6.93 6.93 0 0 0-6.922 6.922.533.533 0 0 0 1.065 0 5.857 5.857 0 0 1 11.715 0 .533.533 0 0 0 1.065 0 6.93 6.93 0 0 0-6.923-6.922z" transform="translate(-106.666 -256)"/>
        </g>
    </g>
    <g id="Grupo_3295" data-name="Grupo 3295" transform="translate(16.964 10.65)">
        <g id="Grupo_3294" data-name="Grupo 3294">
            <path id="Caminho_3334" data-name="Caminho 3334" class="cls-1" d="M342.552 298.667a4.794 4.794 0 0 0-2.483.692.533.533 0 0 0 .553.911 3.728 3.728 0 0 1 5.657 3.19.533.533 0 0 0 1.065 0 4.8 4.8 0 0 0-4.792-4.793z" transform="translate(-339.813 -298.667)"/>
        </g>
    </g>
    <g id="Grupo_3297" data-name="Grupo 3297" transform="translate(0 10.65)">
        <g id="Grupo_3296" data-name="Grupo 3296">
            <path id="Caminho_3335" data-name="Caminho 3335" class="cls-1" d="M7.274 299.358A4.794 4.794 0 0 0 0 303.459a.533.533 0 0 0 1.065 0 3.729 3.729 0 0 1 5.656-3.191.533.533 0 1 0 .553-.911z" transform="translate(0 -298.667)"/>
        </g>
    </g>
</svg>
