<svg xmlns="http://www.w3.org/2000/svg" width="38.48" height="38.48" viewBox="0 0 38.48 38.48">
  <defs>
    <style>
      .cls-1 {
        fill: rgba(255,255,255,0);
      }

      .cls-2 {
        fill: #215aff;
      }
    </style>
  </defs>
  <g id="icon-edit" transform="translate(-620 -291)">
    <rect id="Retângulo_437" data-name="Retângulo 437" class="cls-1" width="38.48" height="38.48" rx="19" transform="translate(620 291)"/>
    <g id="edit-3" transform="translate(629 301.121)">
      <path id="Caminho_3809" data-name="Caminho 3809" class="cls-2" d="M19.211,20.642h-7.39a.821.821,0,0,1,0-1.642h7.39a.821.821,0,0,1,0,1.642Z" transform="translate(-1.61 -3.063)"/>
      <path id="Caminho_3810" data-name="Caminho 3810" class="cls-2" d="M15.138,1.879A2.563,2.563,0,0,1,16.95,6.254L6.686,16.517a.821.821,0,0,1-.381.216l-3.284.821a.821.821,0,0,1-1-1l.821-3.284a.821.821,0,0,1,.216-.381L13.325,2.629A2.546,2.546,0,0,1,15.138,1.879ZM5.686,15.2l10.1-10.1a.921.921,0,1,0-1.3-1.3l-10.1,10.1L3.95,15.629Z"/>
    </g>
  </g>
</svg>
