<svg xmlns="http://www.w3.org/2000/svg" width="38.48" height="38.48" viewBox="0 0 38.48 38.48">
  <defs>
    <style>
      .cls-1 {
        fill: #e6e7e9;
      }

      .cls-2 {
        fill: #215aff;
      }
    </style>
  </defs>
  <g id="icon-menu-filled" transform="translate(-228 -1183.516)">
    <rect id="Retângulo_436" data-name="Retângulo 436" class="cls-1" width="38.48" height="38.48" rx="19" transform="translate(228 1183.516)"/>
    <path id="Caminho_3853" data-name="Caminho 3853" class="cls-2" d="M21017.6,21607a.8.8,0,0,1-.8-.8v-5.6a.8.8,0,0,1,.8-.8h5.6a.8.8,0,0,1,.8.8v5.6a.8.8,0,0,1-.8.8Zm.8-1.6h4v-4h-4Zm-9.6,1.6a.8.8,0,0,1-.8-.8v-5.6a.8.8,0,0,1,.8-.8h5.6a.8.8,0,0,1,.8.8v5.6a.8.8,0,0,1-.8.8Zm.8-1.6h4v-4h-4Zm8-7.2a.8.8,0,0,1-.8-.8v-5.6a.8.8,0,0,1,.8-.8h5.6a.8.8,0,0,1,.8.8v5.6a.8.8,0,0,1-.8.8Zm.8-1.6h4v-4h-4Zm-9.6,1.6a.8.8,0,0,1-.8-.8v-5.6a.8.8,0,0,1,.8-.8h5.6a.8.8,0,0,1,.8.8v5.6a.8.8,0,0,1-.8.8Zm.8-1.6h4v-4h-4Z" transform="translate(-20769 -20396.488)"/>
  </g>
</svg>
