<svg xmlns="http://www.w3.org/2000/svg" width="38.48" height="38.48" viewBox="0 0 38.48 38.48">
    <defs>
        <style>
            .cls-2{fill:#215aff}
        </style>
    </defs>
    <g id="icon-select-filled" transform="translate(-508 -575)">
        <rect id="Retângulo_447" data-name="Retângulo 447" width="38.48" height="38.48" rx="19" transform="translate(508 575)" style="fill:#e6e7e9"/>
        <g id="select" transform="translate(519 586.762)">
            <path id="Caminho_2942" data-name="Caminho 2942" class="cls-2" d="M36.536 15.389a.708.708 0 0 0-1 0l-6.356 6.356-2.927-2.927a.708.708 0 0 0-1 1l3.428 3.428a.708.708 0 0 0 1 0l6.855-6.857a.708.708 0 0 0 0-1z" transform="translate(-20.608 -14.263)"/>
            <path id="Caminho_2943" data-name="Caminho 2943" class="cls-2" d="M14.143 11.944a.812.812 0 0 0-.812.812v6.019H1.625V7.07h9.269a.812.812 0 0 0 0-1.625H.812A.812.812 0 0 0 0 6.257v13.33a.812.812 0 0 0 .812.812h13.33a.812.812 0 0 0 .812-.812v-6.831a.812.812 0 0 0-.811-.812z" transform="translate(0 -5.445)"/>
        </g>
    </g>
</svg>
