<svg xmlns="http://www.w3.org/2000/svg" width="38.48" height="38.48" viewBox="0 0 38.48 38.48">
  <defs>
    <style>
      .cls-1 {
        fill: rgba(255,255,255,0);
        stroke: #e6e7e9;
      }

      .cls-2 {
        fill: #215aff;
      }

      .cls-3 {
        stroke: none;
      }

      .cls-4 {
        fill: none;
      }
    </style>
  </defs>
  <g id="icon-face-id-outline" transform="translate(-60 -291.242)">
    <g id="Retângulo_447" data-name="Retângulo 447" class="cls-1" transform="translate(60 291.242)">
      <rect class="cls-3" width="38.48" height="38.48" rx="19"/>
      <rect class="cls-4" x="0.5" y="0.5" width="37.48" height="37.48" rx="18.5"/>
    </g>
    <path id="Caminho_3856" data-name="Caminho 3856" class="cls-2" d="M10.708,16.092a.769.769,0,0,1,0-1.526h2.615a1.338,1.338,0,0,0,1.336-1.337V10.71c0-.369.46-.654.829-.654a.689.689,0,0,1,.706.654v2.709a2.675,2.675,0,0,1-2.672,2.673Zm-8.035,0A2.676,2.676,0,0,1,0,13.417V10.709a.769.769,0,0,1,.789-.652.727.727,0,0,1,.747.652v2.519a1.338,1.338,0,0,0,1.336,1.337H5.486a.769.769,0,0,1,0,1.526ZM5.85,11.309a.543.543,0,0,1-.045-.728.535.535,0,0,1,.716-.1,2.754,2.754,0,0,0,3.153.042.526.526,0,0,1,.712.071.574.574,0,0,1,.014.752,3.445,3.445,0,0,1-2.288.832A3.171,3.171,0,0,1,5.85,11.309ZM7.168,8.494a.513.513,0,0,1,.124-.426.635.635,0,0,1,.332-.2,1.336,1.336,0,0,1,.34-.047V6.151a.572.572,0,1,1,1.144,0V7.907c0,.754-.09.961-.849,1.113a1.792,1.792,0,0,1-.352.037C7.533,9.058,7.2,8.915,7.168,8.494Zm3.769-2.728V4.833a.629.629,0,1,1,1.259,0v.933a.629.629,0,1,1-1.259,0Zm-6.892,0V4.833a.63.63,0,1,1,1.259,0v.933a.63.63,0,1,1-1.259,0Zm10.614-.384V2.862a1.338,1.338,0,0,0-1.336-1.337H10.708a.762.762,0,0,1-.674-.765A.758.758,0,0,1,10.708,0h2.814a2.676,2.676,0,0,1,2.673,2.673V5.382a.689.689,0,0,1-.706.653C15.12,6.035,14.659,5.751,14.659,5.382ZM0,5.383V2.674A2.676,2.676,0,0,1,2.673,0H5.486A.758.758,0,0,1,6.16.762a.762.762,0,0,1-.674.765H2.871A1.338,1.338,0,0,0,1.536,2.864V5.383a.726.726,0,0,1-.747.652A.768.768,0,0,1,0,5.383Z" transform="translate(71 302.241)"/>
  </g>
</svg>
