<svg xmlns="http://www.w3.org/2000/svg" width="38.48" height="38.48" viewBox="0 0 38.48 38.48">
  <defs>
    <style>
      .cls-1 {
        fill: #e6e7e9;
      }

      .cls-2 {
        fill: #215aff;
        fill-rule: evenodd;
      }
    </style>
  </defs>
  <g id="icon-order-filled" transform="translate(-340 -403)">
    <rect id="Retângulo_442" data-name="Retângulo 442" class="cls-1" width="38.48" height="38.48" rx="19" transform="translate(340 403)"/>
    <path id="order" class="cls-2" d="M6.922.358v5.61H9.735V.358a1.407,1.407,0,0,0-2.813,0ZM0,2.806A.485.485,0,1,1,.69,2.12l.266.266.859-.859a1.5,1.5,0,1,0,.541.831L1.3,3.415a.485.485,0,0,1-.686,0ZM2.5.838,3.112.229A.485.485,0,0,1,3.8.915l-.693.692A2.472,2.472,0,1,1,2.5.838ZM-2.132,10.98a.485.485,0,0,0-.485.485.485.485,0,0,0,.485.485.485.485,0,0,0,.485-.485A.485.485,0,0,0-2.132,10.98Zm1.94.97a.485.485,0,0,1-.485-.485.485.485,0,0,1,.485-.485H4.5a.485.485,0,0,1,0,.97Zm-1.94-2.91a.485.485,0,0,0-.485.485.485.485,0,0,0,.485.485.485.485,0,0,0,.485-.485A.485.485,0,0,0-2.132,9.04Zm1.94.97a.485.485,0,0,1-.485-.485A.485.485,0,0,1-.192,9.04H4.5a.485.485,0,1,1,0,.97ZM6.922,6.938v7.114a.485.485,0,0,1-.485.485H-4.072a.485.485,0,0,1-.485-.485V.309A2.332,2.332,0,0,1-2.229-2.019H8.329A2.382,2.382,0,0,1,10.706.358v6.1a.485.485,0,0,1-.485.485ZM6.416-1.049A2.363,2.363,0,0,0,5.952.358V13.567H-3.587V.309A1.362,1.362,0,0,1-2.229-1.049ZM-2.132,7.1a.485.485,0,0,0-.485.485.485.485,0,0,0,.485.485.485.485,0,0,0,.485-.485A.485.485,0,0,0-2.132,7.1Zm1.94.97H4.5a.485.485,0,0,0,0-.97H-.192a.485.485,0,0,0-.485.485A.485.485,0,0,0-.192,8.07Zm0,0" transform="translate(356.367 415.982)"/>
  </g>
</svg>
