<svg xmlns="http://www.w3.org/2000/svg" width="38.48" height="38.48" viewBox="0 0 38.48 38.48">
  <defs>
    <style>
      .cls-1 {
        fill: rgba(255,255,255,0);
        stroke: #e6e7e9;
      }

      .cls-2 {
        fill: #215aff;
      }

      .cls-3 {
        stroke: none;
      }

      .cls-4 {
        fill: none;
      }
    </style>
  </defs>
  <g id="icon-close-outline" transform="translate(-452 -790)">
    <g id="Retângulo_447" data-name="Retângulo 447" class="cls-1" transform="translate(452 790)">
      <rect class="cls-3" width="38.48" height="38.48" rx="19"/>
      <rect class="cls-4" x="0.5" y="0.5" width="37.48" height="37.48" rx="18.5"/>
    </g>
    <g id="icon-close" transform="translate(458 796)">
      <path id="Linha_115" data-name="Linha 115" class="cls-2" d="M.143,15a1.139,1.139,0,0,1-.808-.335,1.143,1.143,0,0,1,0-1.616L13.049-.665A1.143,1.143,0,0,1,14.665.951L.951,14.665A1.139,1.139,0,0,1,.143,15Z" transform="translate(6 6)"/>
      <path id="Linha_116" data-name="Linha 116" class="cls-2" d="M13.857,15a1.139,1.139,0,0,1-.808-.335L-.665.951A1.143,1.143,0,0,1,.951-.665L14.665,13.049A1.143,1.143,0,0,1,13.857,15Z" transform="translate(6 6)"/>
    </g>
  </g>
</svg>
