<svg xmlns="http://www.w3.org/2000/svg" width="38.48" height="38.48" viewBox="0 0 38.48 38.48">
    <defs>
        <style>
            .cls-2{fill:#215aff}
        </style>
    </defs>
    <g id="icon-cloud-computing" transform="translate(-60 -291)">
        <rect id="Retângulo_447" data-name="Retângulo 447" width="38.48" height="38.48" rx="19" transform="translate(60 291)" style="fill:transparent"/>
        <g id="cloud-computing" transform="translate(70 247.969)">
            <g id="Grupo_3154" data-name="Grupo 3154" transform="translate(0 55.032)">
                <g id="Grupo_3153" data-name="Grupo 3153">
                    <path id="Caminho_3322" data-name="Caminho 3322" class="cls-2" d="M15.8 59.965a6.519 6.519 0 0 0-12.822 1.114 3.556 3.556 0 0 0 .593 7.064h2.962v-1.185H3.57a2.37 2.37 0 0 1 0-4.741.593.593 0 0 0 .593-.593 5.334 5.334 0 0 1 10.566-1.037.593.593 0 0 0 .5.474 2.963 2.963 0 0 1-.4 5.9h-2.37v1.185h2.37a4.148 4.148 0 0 0 .972-8.178z" transform="translate(0 -55.032)"/>
                    <path id="Caminho_3323" data-name="Caminho 3323" class="cls-2" d="m183.405 249.183-2.37 2.37.836.836 1.363-1.357v5.683h1.185v-5.683l1.357 1.357.836-.836-2.37-2.37a.593.593 0 0 0-.837 0z" transform="translate(-174.33 -241.826)"/>
                </g>
            </g>
        </g>
    </g>
</svg>
