<svg xmlns="http://www.w3.org/2000/svg" width="38.48" height="38.48" viewBox="0 0 38.48 38.48">
  <defs>
    <style>
      .cls-1 {
        fill: #e6e7e9;
      }
    </style>
  </defs>
  <g id="icon-user-filled" transform="translate(-60 -845.758)">
    <rect id="Retângulo_438" data-name="Retângulo 438" class="cls-1" width="38.48" height="38.48" rx="19" transform="translate(60 845.758)"/>
    <path id="Caminho_3761" data-name="Caminho 3761" class="cls-2" d="M16.6,20.4a.8.8,0,0,1-.8-.8V18a2.4,2.4,0,0,0-2.4-2.4H7A2.4,2.4,0,0,0,4.6,18v1.6a.8.8,0,1,1-1.6,0V18a4,4,0,0,1,4-4h6.4a4,4,0,0,1,4,4v1.6A.8.8,0,0,1,16.6,20.4Z" transform="translate(69.039 852.598)"/>
    <path id="Elipse_41" data-name="Elipse 41" class="cls-2" d="M3-1A4,4,0,1,1-1,3,4,4,0,0,1,3-1ZM3,5.4A2.4,2.4,0,1,0,.6,3,2.4,2.4,0,0,0,3,5.4Z" transform="translate(76.238 857.998)"/>
  </g>
</svg>
