<svg xmlns="http://www.w3.org/2000/svg" width="38.48" height="38.48" viewBox="0 0 38.48 38.48">
    <defs>
        <style>
            .cls-2{fill:#215aff}
        </style>
    </defs>
    <g id="icon-document-filled" transform="translate(-396 -845.758)">
        <rect id="Retângulo_447" data-name="Retângulo 447" width="38.48" height="38.48" rx="19" transform="translate(396 845.758)" style="fill:#e6e7e9"/>
        <g id="Grupo_3985" data-name="Grupo 3985" transform="translate(3453 2117.758)">
            <g id="user" transform="translate(-3043.988 -1255.988)">
                <path id="Caminho_3761" data-name="Caminho 3761" class="cls-2" d="M8.3 16.495a.312.312 0 0 1-.312-.312v-.624a.937.937 0 0 0-.935-.935H4.559a.937.937 0 0 0-.935.935v.624a.312.312 0 1 1-.624 0v-.624A1.561 1.561 0 0 1 4.559 14h2.495a1.561 1.561 0 0 1 1.559 1.559v.624a.312.312 0 0 1-.313.312z" transform="translate(-3 -10.258)"/>
                <path id="Elipse_41" data-name="Elipse 41" class="cls-2" d="M.559-1A1.559 1.559 0 1 1-1 .559 1.561 1.561 0 0 1 .559-1zm0 2.495A.935.935 0 1 0-.376.559a.937.937 0 0 0 .935.936z" transform="translate(2.247 1)"/>
            </g>
            <path id="Caminho_3800" data-name="Caminho 3800" class="cls-2" d="M1.509 1.006a.5.5 0 0 0-.5.5v7.045a.5.5 0 0 0 .5.5h13.078a.5.5 0 0 0 .5-.5V1.509a.5.5 0 0 0-.5-.5H1.509m0-1.009h13.078A1.509 1.509 0 0 1 16.1 1.509v7.042a1.509 1.509 0 0 1-1.509 1.509H1.509A1.509 1.509 0 0 1 0 8.551V1.509A1.509 1.509 0 0 1 1.509 0z" transform="translate(-3046 -1258)"/>
            <path id="Caminho_3803" data-name="Caminho 3803" class="cls-2" d="M7.142.171h-4.05a.335.335 0 0 1-.335-.335.335.335 0 0 1 .335-.336h4.05a.335.335 0 0 1 .335.335.335.335 0 0 1-.335.336z" transform="translate(-3039.283 -1253.141)"/>
            <path id="Caminho_3804" data-name="Caminho 3804" class="cls-2" d="M7.142.171h-4.05a.335.335 0 0 1-.335-.335.335.335 0 0 1 .335-.336h4.05a.335.335 0 0 1 .335.335.335.335 0 0 1-.335.336z" transform="translate(-3039.283 -1251.799)"/>
        </g>
    </g>
</svg>
