<svg id="icon-flag-eua" xmlns="http://www.w3.org/2000/svg" width="38.857" height="27.186" viewBox="0 0 38.857 27.186">
  <g id="_2191634335648" transform="translate(0)">
    <path id="Caminho_3857" data-name="Caminho 3857" d="M6679.038,12175.013a1.81,1.81,0,0,1-1.81,1.809h-35.24a1.808,1.808,0,0,1-1.809-1.809v-23.57a1.81,1.81,0,0,1,1.809-1.807h35.24a1.812,1.812,0,0,1,1.81,1.807Z" transform="translate(-6640.179 -12149.636)" fill="#fff"/>
    <path id="Caminho_3858" data-name="Caminho 3858" d="M6640.189,17132.723a1.806,1.806,0,0,0,1.809,1.811h35.239a1.808,1.808,0,0,0,1.809-1.811v-.293h-38.856Z" transform="translate(-6640.189 -17107.348)" fill="#db373a"/>
    <path id="Caminho_3859" data-name="Caminho 3859" d="M6640.189,16302.7h38.856v-2.1h-38.856Z" transform="translate(-6640.189 -16279.704)" fill="#db373a"/>
    <path id="Caminho_3860" data-name="Caminho 3860" d="M6640.189,15470.895h38.856v-2.1h-38.856Z" transform="translate(-6640.189 -15452.085)" fill="#db373a"/>
    <path id="Caminho_3861" data-name="Caminho 3861" d="M6640.189,14639h38.856v-2.1h-38.856Z" transform="translate(-6640.189 -14624.378)" fill="#db373a"/>
    <path id="Caminho_3862" data-name="Caminho 3862" d="M6640.189,13807.1h38.856v-2.1h-38.856Z" transform="translate(-6640.189 -13796.666)" fill="#db373a"/>
    <path id="Caminho_3863" data-name="Caminho 3863" d="M6640.189,12975.4h38.856v-2.105h-38.856Z" transform="translate(-6640.189 -12969.152)" fill="#db373a"/>
    <path id="Caminho_3864" data-name="Caminho 3864" d="M6679.038,12151.405a1.81,1.81,0,0,0-1.81-1.808h-35.24a1.808,1.808,0,0,0-1.809,1.808v.3h38.858Z" transform="translate(-6640.179 -12149.598)" fill="#db373a"/>
    <path id="Caminho_3865" data-name="Caminho 3865" d="M6660.472,12149.595h-18.5a1.81,1.81,0,0,0-1.807,1.809v12.823h20.3Z" transform="translate(-6640.169 -12149.595)" fill="#2572b7"/>
    <path id="Caminho_3866" data-name="Caminho 3866" d="M6753.51,12215l.2.6h.609l-.492.369.183.605-.5-.37-.493.37.192-.605-.5-.369h.611Z" transform="translate(-6752.141 -12214.665)" fill="#ecedee"/>
    <path id="Caminho_3867" data-name="Caminho 3867" d="M7418.8,12215l.193.6h.614l-.491.369.192.605-.508-.37-.485.37.192-.605-.5-.369h.61Z" transform="translate(-7414.094 -12214.665)" fill="#ecedee"/>
    <path id="Caminho_3868" data-name="Caminho 3868" d="M8112.1,12215l.186.6h.609l-.492.369.19.605-.493-.37-.5.37.185-.605-.491-.369h.616Z" transform="translate(-8103.895 -12214.665)" fill="#ecedee"/>
    <path id="Caminho_3869" data-name="Caminho 3869" d="M8806.588,12215l.2.6h.606l-.5.369.189.605-.491-.37-.5.37.182-.605-.481-.369h.609Z" transform="translate(-8794.888 -12214.665)" fill="#ecedee"/>
    <path id="Caminho_3870" data-name="Caminho 3870" d="M9498.153,12215l.187.6h.624l-.5.369.187.605-.5-.37-.5.37.194-.605-.5-.369h.618Z" transform="translate(-9482.965 -12214.665)" fill="#ecedee"/>
    <path id="Caminho_3871" data-name="Caminho 3871" d="M7070.054,12541.1l.185.6h.617l-.5.368.191.6-.492-.371-.5.371.192-.6-.508-.368h.625Z" transform="translate(-7067.08 -12539.126)" fill="#ecedee"/>
    <path id="Caminho_3872" data-name="Caminho 3872" d="M7735.506,12541.1l.192.6h.611l-.494.368.191.6-.5-.371-.5.371.192-.6-.5-.368h.618Z" transform="translate(-7729.189 -12539.126)" fill="#ecedee"/>
    <path id="Caminho_3873" data-name="Caminho 3873" d="M8428.689,12541.1l.19.6h.614l-.5.368.191.6-.5-.371-.5.371.2-.6-.5-.368h.616Z" transform="translate(-8418.883 -12539.126)" fill="#ecedee"/>
    <path id="Caminho_3874" data-name="Caminho 3874" d="M9123.284,12541.1l.193.6h.618l-.5.368.188.6-.5-.371-.488.371.192-.6-.5-.368h.61Z" transform="translate(-9109.993 -12539.126)" fill="#ecedee"/>
    <path id="Caminho_3875" data-name="Caminho 3875" d="M9817.6,12541.1l.186.6h.618l-.494.368.188.6-.5-.371-.5.371.193-.6-.494-.368h.612Z" transform="translate(-9800.807 -12539.126)" fill="#ecedee"/>
    <path id="Caminho_3876" data-name="Caminho 3876" d="M7070.054,13136l.185.6h.617l-.5.374.191.6-.492-.367-.5.367.192-.6-.508-.374h.625Z" transform="translate(-7067.08 -13131.028)" fill="#ecedee"/>
    <path id="Caminho_3877" data-name="Caminho 3877" d="M7735.506,13136l.192.6h.611l-.494.374.191.6-.5-.367-.5.367.192-.6-.5-.374h.618Z" transform="translate(-7729.189 -13131.028)" fill="#ecedee"/>
    <path id="Caminho_3878" data-name="Caminho 3878" d="M8428.689,13136l.19.6h.614l-.5.374.191.6-.5-.367-.5.367.2-.6-.5-.374h.616Z" transform="translate(-8418.883 -13131.028)" fill="#ecedee"/>
    <path id="Caminho_3879" data-name="Caminho 3879" d="M9123.284,13136l.193.6h.618l-.5.374.188.6-.5-.367-.488.367.192-.6-.5-.374h.61Z" transform="translate(-9109.993 -13131.028)" fill="#ecedee"/>
    <path id="Caminho_3880" data-name="Caminho 3880" d="M9817.6,13136l.186.6h.618l-.494.374.188.6-.5-.367-.5.367.193-.6-.494-.374h.612Z" transform="translate(-9800.807 -13131.028)" fill="#ecedee"/>
    <path id="Caminho_3881" data-name="Caminho 3881" d="M7070.054,13730l.185.6h.617l-.5.369.191.6-.492-.374-.5.374.192-.6-.508-.369h.625Z" transform="translate(-7067.08 -13722.043)" fill="#ecedee"/>
    <path id="Caminho_3882" data-name="Caminho 3882" d="M7735.506,13730l.192.6h.611l-.494.369.191.6-.5-.374-.5.374.192-.6-.5-.369h.618Z" transform="translate(-7729.189 -13722.043)" fill="#ecedee"/>
    <path id="Caminho_3883" data-name="Caminho 3883" d="M8428.689,13730l.19.6h.614l-.5.369.191.6-.5-.374-.5.374.2-.6-.5-.369h.616Z" transform="translate(-8418.883 -13722.043)" fill="#ecedee"/>
    <path id="Caminho_3884" data-name="Caminho 3884" d="M9123.284,13730l.193.6h.618l-.5.369.188.6-.5-.374-.488.374.192-.6-.5-.369h.61Z" transform="translate(-9109.993 -13722.043)" fill="#ecedee"/>
    <path id="Caminho_3885" data-name="Caminho 3885" d="M9817.6,13730l.186.6h.618l-.494.369.188.6-.5-.374-.5.374.193-.6-.494-.369h.612Z" transform="translate(-9800.807 -13722.043)" fill="#ecedee"/>
    <path id="Caminho_3886" data-name="Caminho 3886" d="M7070.054,14324.1l.185.6h.617l-.5.378.191.6-.492-.368-.5.368.192-.6-.508-.378h.625Z" transform="translate(-7067.08 -14313.15)" fill="#ecedee"/>
    <path id="Caminho_3887" data-name="Caminho 3887" d="M7735.506,14324.1l.192.6h.611l-.494.378.191.6-.5-.368-.5.368.192-.6-.5-.378h.618Z" transform="translate(-7729.189 -14313.15)" fill="#ecedee"/>
    <path id="Caminho_3888" data-name="Caminho 3888" d="M8428.689,14324.1l.19.6h.614l-.5.378.191.6-.5-.368-.5.368.2-.6-.5-.378h.616Z" transform="translate(-8418.883 -14313.15)" fill="#ecedee"/>
    <path id="Caminho_3889" data-name="Caminho 3889" d="M9123.284,14324.1l.193.6h.618l-.5.378.188.6-.5-.368-.488.368.192-.6-.5-.378h.61Z" transform="translate(-9109.993 -14313.15)" fill="#ecedee"/>
    <path id="Caminho_3890" data-name="Caminho 3890" d="M9817.6,14324.1l.186.6h.618l-.494.378.188.6-.5-.368-.5.368.193-.6-.494-.378h.612Z" transform="translate(-9800.807 -14313.15)" fill="#ecedee"/>
    <path id="Caminho_3891" data-name="Caminho 3891" d="M10192.9,12215l.192.6h.609l-.494.369.193.605-.5-.37-.5.37.192-.605-.492-.369h.61Z" transform="translate(-10174.218 -12214.665)" fill="#ecedee"/>
    <path id="Caminho_3892" data-name="Caminho 3892" d="M6753.51,12808.9l.2.6h.609l-.492.365.183.6-.5-.37-.493.37.192-.6-.5-.365h.611Z" transform="translate(-6752.141 -12805.58)" fill="#ecedee"/>
    <path id="Caminho_3893" data-name="Caminho 3893" d="M7418.8,12808.9l.193.6h.614l-.491.365.192.6-.508-.37-.485.37.192-.6-.5-.365h.61Z" transform="translate(-7414.094 -12805.58)" fill="#ecedee"/>
    <path id="Caminho_3894" data-name="Caminho 3894" d="M8112.1,12808.9l.186.6h.609l-.492.365.19.6-.493-.37-.5.37.185-.6-.491-.365h.616Z" transform="translate(-8103.895 -12805.58)" fill="#ecedee"/>
    <path id="Caminho_3895" data-name="Caminho 3895" d="M8806.588,12808.9l.2.6h.606l-.5.365.189.6-.491-.37-.5.37.182-.6-.481-.365h.609Z" transform="translate(-8794.888 -12805.58)" fill="#ecedee"/>
    <path id="Caminho_3896" data-name="Caminho 3896" d="M9498.153,12808.9l.187.6h.624l-.5.365.187.6-.5-.37-.5.37.194-.6-.5-.365h.618Z" transform="translate(-9482.965 -12805.58)" fill="#ecedee"/>
    <path id="Caminho_3897" data-name="Caminho 3897" d="M10192.9,12808.9l.192.6h.609l-.494.365.193.6-.5-.37-.5.37.192-.6-.492-.365h.61Z" transform="translate(-10174.218 -12805.58)" fill="#ecedee"/>
    <path id="Caminho_3898" data-name="Caminho 3898" d="M6753.51,13402.9l.2.6h.609l-.492.373.183.6-.5-.375-.493.375.192-.6-.5-.373h.611Z" transform="translate(-6752.141 -13396.588)" fill="#ecedee"/>
    <path id="Caminho_3899" data-name="Caminho 3899" d="M7418.8,13402.9l.193.6h.614l-.491.373.192.6-.508-.375-.485.375.192-.6-.5-.373h.61Z" transform="translate(-7414.094 -13396.588)" fill="#ecedee"/>
    <path id="Caminho_3900" data-name="Caminho 3900" d="M8112.1,13402.9l.186.6h.609l-.492.373.19.6-.493-.375-.5.375.185-.6-.491-.373h.616Z" transform="translate(-8103.895 -13396.588)" fill="#ecedee"/>
    <path id="Caminho_3901" data-name="Caminho 3901" d="M8806.588,13402.9l.2.6h.606l-.5.373.189.6-.491-.375-.5.375.182-.6-.481-.373h.609Z" transform="translate(-8794.888 -13396.588)" fill="#ecedee"/>
    <path id="Caminho_3902" data-name="Caminho 3902" d="M9498.153,13402.9l.187.6h.624l-.5.373.187.6-.5-.375-.5.375.194-.6-.5-.373h.618Z" transform="translate(-9482.965 -13396.588)" fill="#ecedee"/>
    <path id="Caminho_3903" data-name="Caminho 3903" d="M10192.9,13402.9l.192.6h.609l-.494.373.193.6-.5-.375-.5.375.192-.6-.492-.373h.61Z" transform="translate(-10174.218 -13396.588)" fill="#ecedee"/>
    <path id="Caminho_3904" data-name="Caminho 3904" d="M6753.51,13997.8l.2.6h.609l-.492.366.183.6-.5-.366-.493.366.192-.6-.5-.366h.611Z" transform="translate(-6752.141 -13988.492)" fill="#ecedee"/>
    <path id="Caminho_3905" data-name="Caminho 3905" d="M7418.8,13997.8l.193.6h.614l-.491.366.192.6-.508-.366-.485.366.192-.6-.5-.366h.61Z" transform="translate(-7414.094 -13988.492)" fill="#ecedee"/>
    <path id="Caminho_3906" data-name="Caminho 3906" d="M8112.1,13997.8l.186.6h.609l-.492.366.19.6-.493-.366-.5.366.185-.6-.491-.366h.616Z" transform="translate(-8103.895 -13988.492)" fill="#ecedee"/>
    <path id="Caminho_3907" data-name="Caminho 3907" d="M8806.588,13997.8l.2.6h.606l-.5.366.189.6-.491-.366-.5.366.182-.6-.481-.366h.609Z" transform="translate(-8794.888 -13988.492)" fill="#ecedee"/>
    <path id="Caminho_3908" data-name="Caminho 3908" d="M9498.153,13997.8l.187.6h.624l-.5.366.187.6-.5-.366-.5.366.194-.6-.5-.366h.618Z" transform="translate(-9482.965 -13988.492)" fill="#ecedee"/>
    <path id="Caminho_3909" data-name="Caminho 3909" d="M10192.9,13997.8l.192.6h.609l-.494.366.193.6-.5-.366-.5.366.192-.6-.492-.366h.61Z" transform="translate(-10174.218 -13988.492)" fill="#ecedee"/>
    <path id="Caminho_3910" data-name="Caminho 3910" d="M6753.51,14590.5l.2.605h.609l-.492.366.183.6-.5-.368-.493.368.192-.6-.5-.366h.611Z" transform="translate(-6752.141 -14578.217)" fill="#ecedee"/>
    <path id="Caminho_3911" data-name="Caminho 3911" d="M7418.8,14590.5l.193.605h.614l-.491.366.192.6-.508-.368-.485.368.192-.6-.5-.366h.61Z" transform="translate(-7414.094 -14578.217)" fill="#ecedee"/>
    <path id="Caminho_3912" data-name="Caminho 3912" d="M8112.1,14590.5l.186.605h.609l-.492.366.19.6-.493-.368-.5.368.185-.6-.491-.366h.616Z" transform="translate(-8103.895 -14578.217)" fill="#ecedee"/>
    <path id="Caminho_3913" data-name="Caminho 3913" d="M8806.588,14590.5l.2.605h.606l-.5.366.189.6-.491-.368-.5.368.182-.6-.481-.366h.609Z" transform="translate(-8794.888 -14578.217)" fill="#ecedee"/>
    <path id="Caminho_3914" data-name="Caminho 3914" d="M9498.153,14590.5l.187.605h.624l-.5.366.187.6-.5-.368-.5.368.194-.6-.5-.366h.618Z" transform="translate(-9482.965 -14578.217)" fill="#ecedee"/>
    <path id="Caminho_3915" data-name="Caminho 3915" d="M10192.9,14590.5l.192.605h.609l-.494.366.193.6-.5-.368-.5.368.192-.6-.492-.366h.61Z" transform="translate(-10174.218 -14578.217)" fill="#ecedee"/>
  </g>
</svg>
