<svg xmlns="http://www.w3.org/2000/svg" width="36.879" height="27.186" viewBox="0 0 36.879 27.186">
  <g id="icon-flag-brazil" transform="translate(11418.439 100)">
    <path id="Caminho_2253" data-name="Caminho 2253" d="M6660.357,12163.106a1.765,1.765,0,0,1-1.716,1.81h-33.447a1.765,1.765,0,0,1-1.716-1.81v-23.568a1.766,1.766,0,0,1,1.716-1.808h33.447a1.766,1.766,0,0,1,1.716,1.808Z" transform="translate(-18041.918 -12237.73)" fill="#21ac61"/>
    <g id="Grupo_3679" data-name="Grupo 3679">
      <path id="Caminho_2254" data-name="Caminho 2254" d="M7323.941,12880.446l-12.733-8.373,12.734-8.376,12.739,8.373Z" transform="translate(-18723.943 -12958.479)" fill="#f8d22c"/>
      <path id="Caminho_2255" data-name="Caminho 2255" d="M9181.537,13524.925a5.317,5.317,0,1,1-5.3-5.608A5.468,5.468,0,0,1,9181.537,13524.925Z" transform="translate(-20576.229 -13611.333)" fill="#2065a1"/>
      <path id="Caminho_2256" data-name="Caminho 2256" d="M9202.777,14338.479a12.442,12.442,0,0,0-3.006-.072,5.607,5.607,0,0,0-.425,1.1,10.942,10.942,0,0,1,3.346,0,13.547,13.547,0,0,1,6.839,3.164,6.861,6.861,0,0,0,.209-1.134A14.326,14.326,0,0,0,9202.777,14338.479Z" transform="translate(-20604.543 -14426.912)" fill="#fefefe"/>
      <path id="Caminho_2257" data-name="Caminho 2257" d="M9430.061,14402.895c-.008-.1-.062-.251-.228-.24a.229.229,0,0,0-.209.259.215.215,0,0,0,.222.234A.225.225,0,0,0,9430.061,14402.895Zm-.066,0c0,.109-.049.191-.146.191s-.158-.072-.164-.181.053-.2.146-.2S9429.986,14402.785,9429.994,14402.9Z" transform="translate(-20833.9 -14490.947)" fill="#1da868"/>
      <path id="Caminho_2258" data-name="Caminho 2258" d="M9558.162,14403.249h.148c.068,0,.072.041.082.085a.286.286,0,0,0,.007.117l.07,0,0-.013c-.019-.012-.021-.022-.021-.047l0-.087c0-.065-.025-.082-.055-.09a.1.1,0,0,0,.067-.109c0-.1-.073-.125-.149-.134l-.2,0,0,.472h.057Zm0-.216h.145a.075.075,0,0,1,.083.082c0,.066-.044.078-.091.078h-.143Z" transform="translate(-20961.861 -14491.269)" fill="#1da868"/>
      <path id="Caminho_2259" data-name="Caminho 2259" d="M9668.458,14405.418l.178,0c.146.008.194-.121.2-.232,0-.134-.071-.232-.186-.236l-.175,0Zm.073-.412h.113c.086.007.13.066.13.182s-.062.183-.135.181l-.121-.008Z" transform="translate(-21071.781 -14493.229)" fill="#1da868"/>
      <path id="Caminho_2260" data-name="Caminho 2260" d="M9780.116,14410.191l-.327-.022.029-.469.325.024v.056l-.268-.024,0,.154.239.01,0,.06-.241-.016-.01.156.262.014Z" transform="translate(-21182.666 -14497.964)" fill="#1da868"/>
      <path id="Caminho_2261" data-name="Caminho 2261" d="M9881.41,14418l.031-.275c0-.011,0-.072.01-.113h0l-.163.376-.063-.006-.076-.407h-.007a.555.555,0,0,1-.014.117l-.023.275-.055-.006.04-.467.086.006.088.407h0l.166-.383.084.017-.047.467Z" transform="translate(-21283.523 -14505.721)" fill="#1da868"/>
      <path id="Caminho_2262" data-name="Caminho 2262" d="M10310.318,14487.439l-.32-.084.1-.455.309.072-.01.06-.256-.063-.029.136.238.065-.016.054-.238-.062-.033.149.268.072Z" transform="translate(-21710.758 -14574.837)" fill="#1da868"/>
      <path id="Caminho_2263" data-name="Caminho 2263" d="M10662.341,14587.744l.132.054a.135.135,0,0,0,.173-.085.132.132,0,0,0-.088-.175l-.187-.065-.142.442.055.021Zm.076-.206.1.041c.048.023.079.05.066.111s-.064.06-.113.043l-.114-.039Z" transform="translate(-22061.582 -14674.988)" fill="#1da868"/>
      <path id="Caminho_2264" data-name="Caminho 2264" d="M10758.192,14622.769l.134.061c.076.024.063.065.048.1a.459.459,0,0,0-.029.113l.072.024v0a.046.046,0,0,1,0-.052l.022-.082c.021-.062,0-.082-.017-.1a.109.109,0,0,0,.091-.08c.039-.095-.019-.15-.091-.18l-.189-.074-.162.438.058.024Zm.078-.2.136.054a.079.079,0,0,1,.052.105c-.024.067-.074.055-.115.041l-.134-.052Z" transform="translate(-22157.039 -14709.864)" fill="#1da868"/>
      <path id="Caminho_2265" data-name="Caminho 2265" d="M10868.287,14673.031a.246.246,0,0,0-.117-.321.214.214,0,0,0-.285.148.219.219,0,0,0,.107.311A.212.212,0,0,0,10868.287,14673.031Zm-.059-.022a.159.159,0,0,1-.213.108.162.162,0,0,1-.068-.236.153.153,0,0,1,.205-.115C10868.244,14672.8,10868.266,14672.9,10868.229,14673.009Z" transform="translate(-22266.391 -14759.848)" fill="#1da868"/>
      <path id="Caminho_2266" data-name="Caminho 2266" d="M10980.515,14722.831l.175.084-.1.227-.037-.021.01-.061a.17.17,0,0,1-.162,0,.162.162,0,0,1-.1-.1.268.268,0,0,1,.012-.21.211.211,0,0,1,.288-.127.176.176,0,0,1,.109.216l-.048-.017a.148.148,0,0,0-.084-.156c-.072-.033-.16.006-.208.113-.039.086-.053.193.058.246a.149.149,0,0,0,.095.011.194.194,0,0,0,.1-.095l-.129-.06Z" transform="translate(-22378.369 -14809.542)" fill="#1da868"/>
      <path id="Caminho_2267" data-name="Caminho 2267" d="M11078.895,14763.454l.128.069a.071.071,0,0,1,.035.113.383.383,0,0,0-.035.111l.063.039.006-.011c-.011-.019-.008-.03,0-.06l.032-.078a.087.087,0,0,0,0-.1c.027,0,.064-.012.1-.078.04-.082-.019-.146-.079-.181l-.185-.1-.2.424.054.028Zm.09-.193.138.078a.073.073,0,0,1,.04.1c-.033.071-.081.056-.119.032l-.12-.063Z" transform="translate(-22476.449 -14849.963)" fill="#1da868"/>
      <path id="Caminho_2268" data-name="Caminho 2268" d="M11177.09,14814.577l-.29-.166.206-.416.295.162-.029.05-.231-.132-.064.121.219.128-.028.05-.213-.124-.068.14.231.136Z" transform="translate(-22574.096 -14900.553)" fill="#1da868"/>
      <path id="Caminho_2269" data-name="Caminho 2269" d="M11274.688,14873.726a.11.11,0,0,0-.051-.142.088.088,0,0,0-.129.015c-.021.041,0,.06.021.082l.092.1a.129.129,0,0,1,.029.158.141.141,0,0,1-.216.031.186.186,0,0,1-.1-.113.176.176,0,0,1,.019-.124l.05.029a.118.118,0,0,0,.058.162.094.094,0,0,0,.141-.008c.016-.045.008-.066-.051-.126l-.068-.062a.127.127,0,0,1-.031-.147.136.136,0,0,1,.206-.046c.139.082.1.175.074.221Z" transform="translate(-22671.238 -14959.813)" fill="#1da868"/>
      <path id="Caminho_2270" data-name="Caminho 2270" d="M11363.734,14927.449a.1.1,0,0,0-.043-.145c-.034-.023-.092-.055-.13.016-.021.033-.011.059.021.078l.091.1a.112.112,0,0,1,.018.156c-.049.088-.145.064-.217.027a.226.226,0,0,1-.092-.119.148.148,0,0,1,.025-.123l.045.029a.119.119,0,0,0,.048.16c.043.025.108.055.139,0s.017-.066-.035-.127l-.071-.068a.128.128,0,0,1-.025-.146.143.143,0,0,1,.208-.041c.128.09.093.18.066.223Z" transform="translate(-22759.934 -15013.305)" fill="#1da868"/>
      <path id="Caminho_2271" data-name="Caminho 2271" d="M11457.573,14987.524a.24.24,0,0,0-.053-.335.212.212,0,0,0-.309.09.236.236,0,0,0,.054.332A.211.211,0,0,0,11457.573,14987.524Zm-.053-.028c-.054.09-.144.129-.222.069a.174.174,0,0,1-.038-.253.16.16,0,0,1,.231-.072A.181.181,0,0,1,11457.521,14987.5Z" transform="translate(-22853.346 -15072.98)" fill="#1da868"/>
      <path id="Caminho_2272" data-name="Caminho 2272" d="M10781.708,13986.795l.068.238.234,0-.193.146.078.236-.191-.145-.185.148.063-.24-.185-.143h.234Z" transform="translate(-22180.277 -14076.843)" fill="#fefefe"/>
      <path id="Caminho_2273" data-name="Caminho 2273" d="M9894.425,14615l.047.15h.154l-.127.089.05.158-.124-.095-.12.091.043-.146-.119-.1h.149Z" transform="translate(-21296.648 -14702.397)" fill="#fefefe"/>
      <path id="Caminho_2274" data-name="Caminho 2274" d="M9306.48,14302.5l.07.217.21,0-.174.134.066.21-.171-.13-.17.13.067-.216-.17-.125.205,0Z" transform="translate(-20710.979 -14391.214)" fill="#fefefe"/>
      <path id="Caminho_2275" data-name="Caminho 2275" d="M9551.389,14785.7l.057.189.19,0-.152.124.055.185-.15-.121-.149.121.056-.193-.146-.115h.181Z" transform="translate(-20954.938 -14872.379)" fill="#fefefe"/>
      <path id="Caminho_2276" data-name="Caminho 2276" d="M9415.637,14850.5l.078.257.249-.008-.2.162.08.253-.21-.156-.2.161.078-.258-.21-.162.255.008Z" transform="translate(-20819.629 -14936.9)" fill="#fefefe"/>
      <path id="Caminho_2277" data-name="Caminho 2277" d="M9315.489,15009.4l.036.134.133,0-.1.084.047.128-.111-.08-.106.08.046-.126-.107-.086.128,0Z" transform="translate(-20720.053 -15095.132)" fill="#fefefe"/>
      <path id="Caminho_2278" data-name="Caminho 2278" d="M9704.232,14999l.056.175h.177l-.146.107.06.173-.143-.107-.144.105.058-.171-.14-.109h.173Z" transform="translate(-21107.191 -15084.775)" fill="#fefefe"/>
      <path id="Caminho_2279" data-name="Caminho 2279" d="M9683.779,15156.7l.049.161h.157l-.13.1.051.166-.132-.1-.124.093.048-.156-.13-.1h.158Z" transform="translate(-21086.83 -15241.813)" fill="#fefefe"/>
      <path id="Caminho_2280" data-name="Caminho 2280" d="M9842.727,15272.4l.064.227.229,0-.181.132.067.224-.178-.138-.185.138.067-.226-.173-.132.222,0Z" transform="translate(-21245.066 -15357.025)" fill="#fefefe"/>
      <path id="Caminho_2281" data-name="Caminho 2281" d="M10394.821,15143.6l.08.253.243-.006-.2.15.087.259-.21-.16-.2.16.071-.255-.2-.154h.247Z" transform="translate(-21794.918 -15228.768)" fill="#fefefe"/>
      <path id="Caminho_2282" data-name="Caminho 2282" d="M10380.512,15002.8l.021.086.094,0-.063.058.019.084-.07-.054-.071.052.03-.082-.07-.062.083,0Z" transform="translate(-21780.877 -15088.561)" fill="#fefefe"/>
      <path id="Caminho_2283" data-name="Caminho 2283" d="M10254.184,14913.395l.048.146h.146l-.114.09.043.14-.119-.09-.106.09.034-.147-.116-.082h.143Z" transform="translate(-21654.982 -14999.535)" fill="#fefefe"/>
      <path id="Caminho_2284" data-name="Caminho 2284" d="M10432.74,14767.295l.054.184.179.006-.145.109.051.178-.14-.109-.151.109.061-.178-.15-.117.184,0Z" transform="translate(-21832.768 -14854.051)" fill="#fefefe"/>
      <path id="Caminho_2285" data-name="Caminho 2285" d="M10740.9,14463.1l.045.158.164,0-.133.1.049.15-.128-.088-.126.09.051-.158-.125-.1.156,0Z" transform="translate(-22139.738 -14551.135)" fill="#fefefe"/>
      <path id="Caminho_2286" data-name="Caminho 2286" d="M10559.542,14901.3l.064.187h.188l-.157.124.059.185-.151-.11-.154.11.066-.185-.157-.124.19,0Z" transform="translate(-21959.063 -14987.486)" fill="#fefefe"/>
      <path id="Caminho_2287" data-name="Caminho 2287" d="M10684.537,15270.7l.083.27.273-.006-.221.168.089.27-.225-.164-.207.162.08-.268-.212-.164.263,0Z" transform="translate(-22083.465 -15355.329)" fill="#fefefe"/>
      <path id="Caminho_2288" data-name="Caminho 2288" d="M10807.869,15487.593l.063.208.2,0-.167.125.065.2-.162-.124-.163.124.059-.206-.165-.117.205-.011Z" transform="translate(-22206.371 -15571.311)" fill="#fefefe"/>
      <path id="Caminho_2289" data-name="Caminho 2289" d="M10930.924,15336.3l.047.173.178,0-.137.106.061.173-.143-.106-.148.1.059-.171-.139-.108h.17Z" transform="translate(-22328.982 -15420.659)" fill="#fefefe"/>
      <path id="Caminho_2290" data-name="Caminho 2290" d="M11085.051,15241.1l.065.2.19,0-.154.117.056.191-.152-.121-.16.125.063-.193-.161-.123h.2Z" transform="translate(-22482.463 -15325.854)" fill="#fefefe"/>
      <path id="Caminho_2291" data-name="Caminho 2291" d="M11100.709,15453.8l.051.161.15-.007-.121.1.051.156-.135-.092-.125.092.052-.152-.132-.1.162.007Z" transform="translate(-22498.1 -15537.66)" fill="#fefefe"/>
      <path id="Caminho_2292" data-name="Caminho 2292" d="M11105.571,15587.2l.039.127.142.006-.11.082.042.135-.113-.09-.1.09.029-.135-.1-.082.127-.006Z" transform="translate(-22502.984 -15670.501)" fill="#fefefe"/>
      <path id="Caminho_2293" data-name="Caminho 2293" d="M11210.589,15291.594l.063.221h.215l-.174.136.072.22-.182-.136-.173.134.068-.218-.181-.134.221,0Z" transform="translate(-22607.463 -15376.139)" fill="#fefefe"/>
      <path id="Caminho_2294" data-name="Caminho 2294" d="M11386.49,15278.5l.05.144h.142l-.114.095.044.146-.114-.091-.123.093.044-.148-.12-.088.144-.007Z" transform="translate(-22782.762 -15363.098)" fill="#fefefe"/>
      <path id="Caminho_2295" data-name="Caminho 2295" d="M11456.553,15178.194l.03.115h.107l-.087.067.036.113-.092-.072-.09.072.035-.113-.092-.069.115,0Z" transform="translate(-22852.584 -15263.22)" fill="#fefefe"/>
      <path id="Caminho_2296" data-name="Caminho 2296" d="M11374.975,14996.4l.043.132.127,0-.108.081.047.138-.11-.078-.105.078.038-.132-.106-.084h.138Z" transform="translate(-22771.305 -15082.189)" fill="#fefefe"/>
      <path id="Caminho_2297" data-name="Caminho 2297" d="M11541.9,14970.4l.074.232h.228l-.188.141.073.234-.187-.141-.185.141.069-.23-.192-.145h.231Z" transform="translate(-22937.436 -15056.295)" fill="#fefefe"/>
      <path id="Caminho_2298" data-name="Caminho 2298" d="M10445.388,15625.4l.039.143.145-.006-.111.094.04.139-.112-.084-.114.084.042-.145-.116-.082.146-.006Z" transform="translate(-21845.418 -15708.541)" fill="#fefefe"/>
    </g>
  </g>
</svg>
